<svg viewBox="238.96019496515333 238.96019496515333 174.2401299767689 174.2401299767689" style="height: 413px; width: 413px;"><path fill="#bf953f" stroke="#bf953f" stroke-width="1px" d="M 323.6802599535378,405.90213045348656 L 325.2802599535378,413.20032494192225 L 326.8802599535378,413.20032494192225 L 328.48025995353777,405.90213045348656 L 331.515728091686,405.75300746628375 L 333.82337180768695,412.85923172893087 L 335.4156673703625,412.70240430440356 L 336.29261477971255,405.2825251927019 L 339.29884970033476,404.83659236697906 L 342.29191326186515,411.682409579531 L 343.8611697105103,411.37026506430516 L 344.00661904627026,403.90015882130166 L 346.9546690637056,403.16171073394236 L 350.604327632493,409.6811919343378 L 352.1354321696645,409.21673645073065 L 351.5479826752202,401.76834428312094 L 354.4094564562328,400.74449259288315 L 358.6805618251534,406.8748516132514 L 360.1587690771715,406.26255812146724 L 358.84407821228695,398.9076121175307 L 361.59141820012496,397.60821707588565 L 366.4428372896524,403.29041520766543 L 367.85391131260974,402.5361804287439 L 365.8246402689971,395.34551273912086 L 368.43138807772874,393.7830882306412 L 373.8163990699754,398.962402799618 L 375.14675044965946,398.0734904267867 L 372.42244221678095,391.11635111214713 L 374.8634934400149,389.3059441389576 L 380.73023573537904,393.9324955145309 L 381.9670524607594,392.91746625986906 L 378.57394361615604,386.2608563749721 L 380.82578959619826,384.2199021458937 L 387.1177632592879,388.2491341091864 L 388.2491341091864,387.1177632592879 L 384.2199021458937,380.82578959619826 L 386.2608563749721,378.57394361615604 L 392.91746625986906,381.9670524607594 L 393.9324955145309,380.73023573537904 L 389.3059441389576,374.8634934400149 L 391.11635111214713,372.42244221678095 L 398.0734904267867,375.14675044965946 L 398.962402799618,373.8163990699754 L 393.7830882306412,368.43138807772874 L 395.34551273912086,365.8246402689971 L 402.5361804287439,367.85391131260974 L 403.29041520766543,366.4428372896524 L 397.60821707588565,361.59141820012496 L 398.9076121175307,358.844078212287 L 406.26255812146724,360.1587690771715 L 406.8748516132514,358.6805618251534 L 400.74449259288315,354.4094564562328 L 401.76834428312094,351.5479826752202 L 409.2167364507307,352.1354321696645 L 409.68119193433785,350.604327632493 L 403.16171073394236,346.9546690637056 L 403.90015882130166,344.00661904627026 L 411.37026506430516,343.86116971051035 L 411.682409579531,342.29191326186515 L 404.83659236697906,339.29884970033476 L 405.2825251927018,336.29261477971255 L 412.70240430440356,335.4156673703625 L 412.8592317289308,333.82337180768695 L 405.75300746628375,331.515728091686 L 405.90213045348656,328.48025995353777 L 413.20032494192225,326.8802599535378 L 413.20032494192225,325.2802599535378 L 405.90213045348656,323.6802599535378 L 405.75300746628375,320.64479181538957 L 412.85923172893087,318.3371480993886 L 412.70240430440356,316.7448525367131 L 405.2825251927019,315.86790512736303 L 404.83659236697906,312.8616702067409 L 411.682409579531,309.86860664521043 L 411.37026506430516,308.2993501965653 L 403.90015882130166,308.1539008608054 L 403.16171073394236,305.20585084337 L 409.68119193433785,301.5561922745826 L 409.2167364507307,300.02508773741107 L 401.76834428312094,300.6125372318554 L 400.74449259288315,297.75106345084276 L 406.8748516132514,293.4799580819222 L 406.26255812146724,292.00175082990415 L 398.9076121175307,293.31644169478864 L 397.60821707588565,290.5691017069506 L 403.29041520766543,285.7176826174232 L 402.5361804287439,284.30660859446584 L 395.34551273912086,286.3358796380785 L 393.7830882306412,283.7291318293469 L 398.9624027996181,278.3441208371002 L 398.0734904267867,277.0137694574162 L 391.11635111214713,279.73807769029463 L 389.3059441389576,277.2970264670607 L 393.9324955145309,271.43028417169654 L 392.91746625986906,270.19346744631616 L 386.26085637497215,273.58657629091954 L 384.2199021458937,271.3347303108773 L 388.2491341091864,265.04275664778766 L 387.1177632592879,263.9113857978892 L 380.82578959619826,267.9406177611819 L 378.57394361615604,265.8996635321035 L 381.9670524607594,259.2430536472065 L 380.73023573537904,258.2280243925447 L 374.8634934400149,262.85457576811797 L 372.42244221678095,261.04416879492845 L 375.14675044965946,254.0870294802889 L 373.8163990699754,253.19811710745756 L 368.43138807772874,258.37743167643436 L 365.8246402689971,256.8150071679547 L 367.85391131260974,249.6243394783317 L 366.4428372896524,248.87010469941015 L 361.59141820012496,254.55230283118993 L 358.844078212287,253.25290778954488 L 360.1587690771715,245.89796178560835 L 358.6805618251534,245.2856682938242 L 354.4094564562328,251.41602731419243 L 351.5479826752202,250.39217562395464 L 352.1354321696645,242.9437834563449 L 350.604327632493,242.47932797273776 L 346.9546690637056,248.99880917313322 L 344.00661904627026,248.26036108577392 L 343.86116971051035,240.79025484277042 L 342.2919132618652,240.47811032754458 L 339.29884970033476,247.3239275400965 L 336.29261477971255,246.87799471437376 L 335.4156673703625,239.45811560267205 L 333.82337180768695,239.30128817814474 L 331.515728091686,246.40751244079183 L 328.4802599535378,246.25838945358902 L 326.8802599535378,238.96019496515333 L 325.2802599535378,238.96019496515333 L 323.6802599535378,246.25838945358902 L 320.64479181538957,246.40751244079183 L 318.3371480993886,239.30128817814472 L 316.7448525367131,239.45811560267202 L 315.86790512736303,246.87799471437373 L 312.8616702067408,247.32392754009652 L 309.86860664521043,240.47811032754458 L 308.29935019656523,240.79025484277042 L 308.1539008608053,248.26036108577392 L 305.20585084337,248.99880917313322 L 301.5561922745826,242.47932797273774 L 300.02508773741107,242.94378345634487 L 300.6125372318554,250.39217562395464 L 297.7510634508428,251.41602731419243 L 293.4799580819222,245.28566829382416 L 292.00175082990415,245.89796178560832 L 293.31644169478864,253.25290778954488 L 290.5691017069506,254.55230283118993 L 285.7176826174232,248.87010469941015 L 284.30660859446584,249.6243394783317 L 286.3358796380785,256.8150071679547 L 283.7291318293469,258.37743167643436 L 278.3441208371002,253.19811710745753 L 277.0137694574162,254.0870294802889 L 279.73807769029463,261.04416879492845 L 277.2970264670607,262.85457576811797 L 271.43028417169654,258.2280243925447 L 270.19346744631616,259.2430536472065 L 273.58657629091954,265.89966353210343 L 271.3347303108773,267.9406177611819 L 265.04275664778766,263.9113857978892 L 263.9113857978892,265.04275664778766 L 267.9406177611819,271.33473031087726 L 265.8996635321035,273.5865762909195 L 259.2430536472066,270.1934674463161 L 258.22802439254474,271.4302841716965 L 262.85457576811797,277.2970264670606 L 261.04416879492845,279.73807769029463 L 254.0870294802889,277.0137694574161 L 253.19811710745756,278.3441208371002 L 258.37743167643436,283.72913182934684 L 256.8150071679547,286.3358796380785 L 249.6243394783317,284.30660859446584 L 248.87010469941015,285.7176826174232 L 254.55230283118993,290.5691017069506 L 253.2529077895449,293.3164416947886 L 245.89796178560835,292.0017508299041 L 245.2856682938242,293.4799580819221 L 251.41602731419246,297.75106345084276 L 250.39217562395464,300.61253723185536 L 242.9437834563449,300.02508773741107 L 242.47932797273776,301.5561922745826 L 248.99880917313322,305.20585084336994 L 248.26036108577392,308.1539008608053 L 240.79025484277042,308.29935019656523 L 240.47811032754458,309.8686066452104 L 247.3239275400965,312.8616702067408 L 246.87799471437373,315.86790512736303 L 239.45811560267202,316.74485253671315 L 239.30128817814472,318.3371480993886 L 246.40751244079183,320.64479181538957 L 246.25838945358902,323.68025995353776 L 238.96019496515333,325.2802599535378 L 238.96019496515333,326.8802599535378 L 246.25838945358902,328.48025995353777 L 246.40751244079183,331.51572809168596 L 239.30128817814472,333.8233718076869 L 239.45811560267202,335.4156673703624 L 246.87799471437373,336.2926147797125 L 247.32392754009652,339.29884970033476 L 240.47811032754458,342.29191326186515 L 240.79025484277042,343.8611697105103 L 248.26036108577392,344.00661904627026 L 248.99880917313322,346.9546690637056 L 242.47932797273774,350.604327632493 L 242.94378345634487,352.1354321696645 L 250.39217562395464,351.54798267522017 L 251.41602731419243,354.4094564562328 L 245.2856682938242,358.6805618251534 L 245.89796178560835,360.1587690771715 L 253.2529077895449,358.844078212287 L 254.55230283118993,361.59141820012496 L 248.87010469941015,366.4428372896524 L 249.6243394783317,367.85391131260974 L 256.8150071679547,365.82464026899703 L 258.37743167643436,368.4313880777287 L 253.19811710745753,373.8163990699754 L 254.0870294802889,375.1467504496594 L 261.04416879492845,372.4224422167809 L 262.85457576811797,374.86349344001496 L 258.22802439254474,380.73023573537904 L 259.2430536472066,381.9670524607594 L 265.8996635321035,378.57394361615604 L 267.9406177611819,380.82578959619826 L 263.9113857978892,387.1177632592879 L 265.04275664778766,388.24913410918634 L 271.33473031087726,384.2199021458937 L 273.5865762909195,386.2608563749721 L 270.1934674463161,392.917466259869 L 271.4302841716965,393.93249551453084 L 277.2970264670606,389.3059441389576 L 279.73807769029463,391.11635111214713 L 277.0137694574161,398.0734904267867 L 278.3441208371002,398.962402799618 L 283.72913182934684,393.7830882306412 L 286.3358796380785,395.34551273912086 L 284.30660859446584,402.5361804287438 L 285.7176826174232,403.29041520766543 L 290.5691017069506,397.60821707588565 L 293.3164416947886,398.9076121175307 L 292.00175082990404,406.26255812146724 L 293.4799580819221,406.8748516132514 L 297.7510634508427,400.74449259288315 L 300.61253723185536,401.76834428312094 L 300.02508773741107,409.21673645073065 L 301.5561922745826,409.6811919343378 L 305.20585084336994,403.16171073394236 L 308.1539008608053,403.90015882130166 L 308.29935019656523,411.37026506430516 L 309.8686066452104,411.682409579531 L 312.8616702067408,404.83659236697906 L 315.86790512736303,405.2825251927019 L 316.7448525367131,412.70240430440356 L 318.3371480993886,412.85923172893087 L 320.64479181538957,405.75300746628375 L 323.6802599535378,405.90213045348656"></path><circle cx="326.0802599535378" cy="326.0802599535378" r="75.52006498838445" fill="#513d12"></circle><circle cx="326.0802599535378" cy="326.0802599535378" r="18.456019496515335" fill="#bf953f"></circle><circle cx="326.0802599535378" cy="326.0802599535378" r="6" fill="white"></circle></svg>