<svg version="1.2" class="svggear" xmlns="http://www.w3.org/2000/svg" xmlns:xlink="http://www.w3.org/1999/xlink" x="0px" y="0px" width="550px" height="550px" viewBox="-275 -275 550 550" overflow="scroll" xml:space="preserve"><path id="gearpoly0" data-id="0" class="gear" fill="#ddd" stroke="#444" stroke-width="1" stroke-miterlimit="10" d="M171.25,0 195.659314,-0.000347 195.780305,-0.003948 195.994182,-0.014859 196.30064,-0.03713 196.69924,-0.074804 197.189413,-0.131906 197.770457,-0.212445 198.441537,-0.320406 199.201692,-0.45975 200.049827,-0.634406 200.984719,-0.848269 202.00502,-1.105199 203.109252,-1.409012 204.295812,-1.763481 205.562973,-2.172331 206.908885,-2.639231 208.331577,-3.1678 209.828957,-3.761593 211.398815,-4.424103 213.038825,-5.15876 214.746547,-5.96892 216.519426,-6.857869 218.354798,-7.828814 220.24989,-8.884886 222.201822,-10.02913 224.207613,-11.264506 224.461971,-11.42548 224.589446,-11.506519 224.653257,-11.547178 224.685181,-11.567541 224.701147,-11.577732 224.701805,-11.580109 222.491096,-33.506901 222.489977,-33.509099 222.472297,-33.515897 222.436951,-33.529478 222.366308,-33.55658 222.225222,-33.610543 221.943851,-33.717503 219.731828,-34.52763 217.59077,-35.259209 215.52301,-35.915737 213.53076,-36.500773 211.616114,-37.017937 209.781041,-37.470905 208.027388,-37.863404 206.356877,-38.199214 204.771103,-38.482156 203.271533,-38.716095 201.859508,-38.904934 200.536236,-39.05261 199.302799,-39.16309 198.160145,-39.240367 197.109092,-39.288458 196.150324,-39.311398 195.284394,-39.313238 194.511723,-39.298039 193.832598,-39.26987 193.247171,-39.232802 192.755465,-39.190909 192.357366,-39.148258 192.05263,-39.108907 191.84088,-39.076905 191.721605,-39.056282 167.803476,-34.184146 158.21437,-65.534538 180.765503,-74.875898 180.875905,-74.925527 181.069327,-75.017454 181.343934,-75.155306 181.697776,-75.34265 182.128785,-75.582986 182.634778,-75.87975 183.213461,-76.236305 183.862427,-76.655941 184.579164,-77.141869 185.36105,-77.697221 186.205362,-78.325045 187.109275,-79.028303 188.069864,-79.809867 189.084108,-80.672516 190.148894,-81.618934 191.261015,-82.651708 192.417179,-83.773324 193.614007,-84.986163 194.848039,-86.292502 196.115733,-87.694509 197.413473,-89.194242 198.737571,-90.793645 200.084266,-92.494548 201.449734,-94.298664 202.830085,-96.207586 203.003479,-96.453645 203.090238,-96.577298 203.133632,-96.63928 203.155333,-96.670311 203.166184,-96.685836 203.165883,-96.688283 192.732433,-116.099996 192.730559,-116.101598 192.711623,-116.101113 192.67377,-116.100135 192.598134,-116.09814 192.447137,-116.094004 192.146251,-116.085146 189.792586,-115.9871 187.534544,-115.843644 185.37294,-115.658899 183.308458,-115.437002 181.341645,-115.182095 179.472916,-114.898331 177.702549,-114.589859 176.030689,-114.26083 174.457347,-113.915384 172.982401,-113.557656 171.605594,-113.191762 170.326537,-112.821803 169.144711,-112.451857 168.059464,-112.085977 167.070014,-111.728186 166.175449,-111.382476 165.37473,-111.052798 164.666692,-110.743068 164.050041,-110.457153 163.523363,-110.198874 163.085117,-109.972002 162.733644,-109.780251 162.467164,-109.627278 162.283779,-109.516679 162.181475,-109.451982 141.948491,-95.797643 121.092036,-121.092036 138.351783,-138.352273 138.434789,-138.440373 138.578308,-138.599322 138.779258,-138.831768 139.034472,-139.140261 139.3407,-139.527243 139.69461,-139.995052 140.092795,-140.545918 140.531775,-141.181959 141.007997,-141.905181 141.517841,-142.717475 142.057626,-143.620613 142.623607,-144.616251 143.211984,-145.705923 143.818902,-146.891042 144.440457,-148.172894 145.072698,-149.552643 145.711631,-151.031326 146.353222,-152.609849 146.993404,-154.288992 147.628076,-156.069403 148.253109,-157.9516 148.86435,-159.935966 149.457627,-162.022754 150.028749,-164.212081 150.573515,-166.503932 150.639547,-166.797616 150.672382,-166.945058 150.688754,-167.018929 150.696928,-167.055902 150.701012,-167.074397 150.699797,-167.076543 133.632006,-181.017919 133.62966,-181.018682 133.612352,-181.010988 133.577755,-180.995598 133.508639,-180.96481 133.370719,-180.903205 133.096127,-180.779877 130.959144,-179.788587 128.927883,-178.791935 127.001521,-177.794043 125.179104,-176.798993 123.459555,-175.810824 121.841666,-174.833528 120.324107,-173.871047 118.905424,-172.92727 117.584042,-172.006029 116.358266,-171.111093 115.226284,-170.24617 114.186167,-169.414898 113.235874,-168.620848 112.373253,-167.867512 111.59604,-167.158311 110.901868,-166.496581 110.288262,-165.885577 109.752649,-165.328468 109.292353,-164.828335 108.904605,-164.388166 108.586539,-164.010854 108.3352,-163.699197 108.147544,-163.455891 108.020443,-163.283531 107.950685,-163.184609 94.483135,-142.826817 65.534538,-158.21437 74.875258,-180.765768 74.918231,-180.878927 74.989998,-181.080699 75.086699,-181.372352 75.204431,-181.755028 75.339256,-182.229741 75.487204,-182.797376 75.644272,-183.458689 75.806434,-184.214305 75.96964,-185.064717 76.129824,-186.010287 76.282904,-187.051245 76.424788,-188.187686 76.551378,-189.419574 76.658572,-190.746738 76.74227,-192.168874 76.798377,-193.685544 76.822807,-195.296178 76.811486,-197.000069 76.760356,-198.796382 76.665383,-200.684146 76.522552,-202.662259 76.327882,-204.729486 76.077419,-206.884464 75.767248,-209.125698 75.393492,-211.451565 75.34211,-211.748163 75.316022,-211.896947 75.302878,-211.971459 75.296281,-212.008746 75.292977,-212.027397 75.291033,-212.028914 54.187316,-218.377505 54.184858,-218.377312 54.171811,-218.36358 54.145737,-218.336122 54.093664,-218.281228 53.989818,-218.171533 53.783323,-217.952511 52.18836,-216.21889 50.693121,-214.520774 49.295271,-212.861655 47.992367,-211.24494 46.781866,-209.673948 45.661127,-208.151905 44.627411,-206.681944 43.677886,-205.267101 42.809632,-203.910314 42.01964,-202.614417 41.304817,-201.382141 40.661988,-200.216111 40.087902,-199.118843 39.579232,-198.092741 39.132581,-197.140098 38.744483,-196.26309 38.411406,-195.46378 38.12976,-194.744109 37.895895,-194.105898 37.706108,-193.55085 37.556644,-193.08054 37.443703,-192.696423 37.363441,-192.399825 37.311974,-192.191947 37.285382,-192.073859 32.633578,-168.111904 0,-171.25 -0.000347,-195.659314 -0.003948,-195.780305 -0.014859,-195.994182 -0.03713,-196.30064 -0.074804,-196.69924 -0.131906,-197.189413 -0.212445,-197.770457 -0.320406,-198.441537 -0.45975,-199.201692 -0.634406,-200.049827 -0.848269,-200.984719 -1.105199,-202.00502 -1.409012,-203.109252 -1.763481,-204.295812 -2.172331,-205.562973 -2.639231,-206.908885 -3.1678,-208.331577 -3.761593,-209.828957 -4.424103,-211.398815 -5.15876,-213.038825 -5.96892,-214.746547 -6.857869,-216.519426 -7.828814,-218.354798 -8.884886,-220.24989 -10.02913,-222.201822 -11.264506,-224.207613 -11.42548,-224.461971 -11.506519,-224.589446 -11.547178,-224.653257 -11.567541,-224.685181 -11.577732,-224.701147 -11.580109,-224.701805 -33.506901,-222.491096 -33.509099,-222.489977 -33.515897,-222.472297 -33.529478,-222.436951 -33.55658,-222.366308 -33.610543,-222.225222 -33.717503,-221.943851 -34.52763,-219.731828 -35.259209,-217.59077 -35.915737,-215.52301 -36.500773,-213.53076 -37.017937,-211.616114 -37.470905,-209.781041 -37.863404,-208.027388 -38.199214,-206.356877 -38.482156,-204.771103 -38.716095,-203.271533 -38.904934,-201.859508 -39.05261,-200.536236 -39.16309,-199.302799 -39.240367,-198.160145 -39.288458,-197.109092 -39.311398,-196.150324 -39.313238,-195.284394 -39.298039,-194.511723 -39.26987,-193.832598 -39.232802,-193.247171 -39.190909,-192.755465 -39.148258,-192.357366 -39.108907,-192.05263 -39.076905,-191.84088 -39.056282,-191.721605 -34.184146,-167.803476 -65.534538,-158.21437 -74.875898,-180.765503 -74.925527,-180.875905 -75.017454,-181.069327 -75.155306,-181.343934 -75.34265,-181.697776 -75.582986,-182.128785 -75.87975,-182.634778 -76.236305,-183.213461 -76.655941,-183.862427 -77.141869,-184.579164 -77.697221,-185.36105 -78.325045,-186.205362 -79.028303,-187.109275 -79.809867,-188.069864 -80.672516,-189.084108 -81.618934,-190.148894 -82.651708,-191.261015 -83.773324,-192.417179 -84.986163,-193.614007 -86.292502,-194.848039 -87.694509,-196.115733 -89.194242,-197.413473 -90.793645,-198.737571 -92.494548,-200.084266 -94.298664,-201.449734 -96.207586,-202.830085 -96.453645,-203.003479 -96.577298,-203.090238 -96.63928,-203.133632 -96.670311,-203.155333 -96.685836,-203.166184 -96.688283,-203.165883 -116.099996,-192.732433 -116.101598,-192.730559 -116.101113,-192.711623 -116.100135,-192.67377 -116.09814,-192.598134 -116.094004,-192.447137 -116.085146,-192.146251 -115.9871,-189.792586 -115.843644,-187.534544 -115.658899,-185.37294 -115.437002,-183.308458 -115.182095,-181.341645 -114.898331,-179.472916 -114.589859,-177.702549 -114.26083,-176.030689 -113.915384,-174.457347 -113.557656,-172.982401 -113.191762,-171.605594 -112.821803,-170.326537 -112.451857,-169.144711 -112.085977,-168.059464 -111.728186,-167.070014 -111.382476,-166.175449 -111.052798,-165.37473 -110.743068,-164.666692 -110.457153,-164.050041 -110.198874,-163.523363 -109.972002,-163.085117 -109.780251,-162.733644 -109.627278,-162.467164 -109.516679,-162.283779 -109.451982,-162.181475 -95.797643,-141.948491 -121.092036,-121.092036 -138.352273,-138.351783 -138.440373,-138.434789 -138.599322,-138.578308 -138.831768,-138.779258 -139.140261,-139.034472 -139.527243,-139.3407 -139.995052,-139.69461 -140.545918,-140.092795 -141.181959,-140.531775 -141.905181,-141.007997 -142.717475,-141.517841 -143.620613,-142.057626 -144.616251,-142.623607 -145.705923,-143.211984 -146.891042,-143.818902 -148.172894,-144.440457 -149.552643,-145.072698 -151.031326,-145.711631 -152.609849,-146.353222 -154.288992,-146.993404 -156.069403,-147.628076 -157.9516,-148.253109 -159.935966,-148.86435 -162.022754,-149.457627 -164.212081,-150.028749 -166.503932,-150.573515 -166.797616,-150.639547 -166.945058,-150.672382 -167.018929,-150.688754 -167.055902,-150.696928 -167.074397,-150.701012 -167.076543,-150.699797 -181.017919,-133.632006 -181.018682,-133.62966 -181.010988,-133.612352 -180.995598,-133.577755 -180.96481,-133.508639 -180.903205,-133.370719 -180.779877,-133.096127 -179.788587,-130.959144 -178.791935,-128.927883 -177.794043,-127.001521 -176.798993,-125.179104 -175.810824,-123.459555 -174.833528,-121.841666 -173.871047,-120.324107 -172.92727,-118.905424 -172.006029,-117.584042 -171.111093,-116.358266 -170.24617,-115.226284 -169.414898,-114.186167 -168.620848,-113.235874 -167.867512,-112.373253 -167.158311,-111.59604 -166.496581,-110.901868 -165.885577,-110.288262 -165.328468,-109.752649 -164.828335,-109.292353 -164.388166,-108.904605 -164.010854,-108.586539 -163.699197,-108.3352 -163.455891,-108.147544 -163.283531,-108.020443 -163.184609,-107.950685 -142.826817,-94.483135 -158.21437,-65.534538 -180.765768,-74.875258 -180.878927,-74.918231 -181.080699,-74.989998 -181.372352,-75.086699 -181.755028,-75.204431 -182.229741,-75.339256 -182.797376,-75.487204 -183.458689,-75.644272 -184.214305,-75.806434 -185.064717,-75.96964 -186.010287,-76.129824 -187.051245,-76.282904 -188.187686,-76.424788 -189.419574,-76.551378 -190.746738,-76.658572 -192.168874,-76.74227 -193.685544,-76.798377 -195.296178,-76.822807 -197.000069,-76.811486 -198.796382,-76.760356 -200.684146,-76.665383 -202.662259,-76.522552 -204.729486,-76.327882 -206.884464,-76.077419 -209.125698,-75.767248 -211.451565,-75.393492 -211.748163,-75.34211 -211.896947,-75.316022 -211.971459,-75.302878 -212.008746,-75.296281 -212.027397,-75.292977 -212.028914,-75.291033 -218.377505,-54.187316 -218.377312,-54.184858 -218.36358,-54.171811 -218.336122,-54.145737 -218.281228,-54.093664 -218.171533,-53.989818 -217.952511,-53.783323 -216.21889,-52.18836 -214.520774,-50.693121 -212.861655,-49.295271 -211.24494,-47.992367 -209.673948,-46.781866 -208.151905,-45.661127 -206.681944,-44.627411 -205.267101,-43.677886 -203.910314,-42.809632 -202.614417,-42.01964 -201.382141,-41.304817 -200.216111,-40.661988 -199.118843,-40.087902 -198.092741,-39.579232 -197.140098,-39.132581 -196.26309,-38.744483 -195.46378,-38.411406 -194.744109,-38.12976 -194.105898,-37.895895 -193.55085,-37.706108 -193.08054,-37.556644 -192.696423,-37.443703 -192.399825,-37.363441 -192.191947,-37.311974 -192.073859,-37.285382 -168.111904,-32.633578 -171.25,0 -195.659314,0.000347 -195.780305,0.003948 -195.994182,0.014859 -196.30064,0.03713 -196.69924,0.074804 -197.189413,0.131906 -197.770457,0.212445 -198.441537,0.320406 -199.201692,0.45975 -200.049827,0.634406 -200.984719,0.848269 -202.00502,1.105199 -203.109252,1.409012 -204.295812,1.763481 -205.562973,2.172331 -206.908885,2.639231 -208.331577,3.1678 -209.828957,3.761593 -211.398815,4.424103 -213.038825,5.15876 -214.746547,5.96892 -216.519426,6.857869 -218.354798,7.828814 -220.24989,8.884886 -222.201822,10.02913 -224.207613,11.264506 -224.461971,11.42548 -224.589446,11.506519 -224.653257,11.547178 -224.685181,11.567541 -224.701147,11.577732 -224.701805,11.580109 -222.491096,33.506901 -222.489977,33.509099 -222.472297,33.515897 -222.436951,33.529478 -222.366308,33.55658 -222.225222,33.610543 -221.943851,33.717503 -219.731828,34.52763 -217.59077,35.259209 -215.52301,35.915737 -213.53076,36.500773 -211.616114,37.017937 -209.781041,37.470905 -208.027388,37.863404 -206.356877,38.199214 -204.771103,38.482156 -203.271533,38.716095 -201.859508,38.904934 -200.536236,39.05261 -199.302799,39.16309 -198.160145,39.240367 -197.109092,39.288458 -196.150324,39.311398 -195.284394,39.313238 -194.511723,39.298039 -193.832598,39.26987 -193.247171,39.232802 -192.755465,39.190909 -192.357366,39.148258 -192.05263,39.108907 -191.84088,39.076905 -191.721605,39.056282 -167.803476,34.184146 -158.21437,65.534538 -180.765503,74.875898 -180.875905,74.925527 -181.069327,75.017454 -181.343934,75.155306 -181.697776,75.34265 -182.128785,75.582986 -182.634778,75.87975 -183.213461,76.236305 -183.862427,76.655941 -184.579164,77.141869 -185.36105,77.697221 -186.205362,78.325045 -187.109275,79.028303 -188.069864,79.809867 -189.084108,80.672516 -190.148894,81.618934 -191.261015,82.651708 -192.417179,83.773324 -193.614007,84.986163 -194.848039,86.292502 -196.115733,87.694509 -197.413473,89.194242 -198.737571,90.793645 -200.084266,92.494548 -201.449734,94.298664 -202.830085,96.207586 -203.003479,96.453645 -203.090238,96.577298 -203.133632,96.63928 -203.155333,96.670311 -203.166184,96.685836 -203.165883,96.688283 -192.732433,116.099996 -192.730559,116.101598 -192.711623,116.101113 -192.67377,116.100135 -192.598134,116.09814 -192.447137,116.094004 -192.146251,116.085146 -189.792586,115.9871 -187.534544,115.843644 -185.37294,115.658899 -183.308458,115.437002 -181.341645,115.182095 -179.472916,114.898331 -177.702549,114.589859 -176.030689,114.26083 -174.457347,113.915384 -172.982401,113.557656 -171.605594,113.191762 -170.326537,112.821803 -169.144711,112.451857 -168.059464,112.085977 -167.070014,111.728186 -166.175449,111.382476 -165.37473,111.052798 -164.666692,110.743068 -164.050041,110.457153 -163.523363,110.198874 -163.085117,109.972002 -162.733644,109.780251 -162.467164,109.627278 -162.283779,109.516679 -162.181475,109.451982 -141.948491,95.797643 -121.092036,121.092036 -138.351783,138.352273 -138.434789,138.440373 -138.578308,138.599322 -138.779258,138.831768 -139.034472,139.140261 -139.3407,139.527243 -139.69461,139.995052 -140.092795,140.545918 -140.531775,141.181959 -141.007997,141.905181 -141.517841,142.717475 -142.057626,143.620613 -142.623607,144.616251 -143.211984,145.705923 -143.818902,146.891042 -144.440457,148.172894 -145.072698,149.552643 -145.711631,151.031326 -146.353222,152.609849 -146.993404,154.288992 -147.628076,156.069403 -148.253109,157.9516 -148.86435,159.935966 -149.457627,162.022754 -150.028749,164.212081 -150.573515,166.503932 -150.639547,166.797616 -150.672382,166.945058 -150.688754,167.018929 -150.696928,167.055902 -150.701012,167.074397 -150.699797,167.076543 -133.632006,181.017919 -133.62966,181.018682 -133.612352,181.010988 -133.577755,180.995598 -133.508639,180.96481 -133.370719,180.903205 -133.096127,180.779877 -130.959144,179.788587 -128.927883,178.791935 -127.001521,177.794043 -125.179104,176.798993 -123.459555,175.810824 -121.841666,174.833528 -120.324107,173.871047 -118.905424,172.92727 -117.584042,172.006029 -116.358266,171.111093 -115.226284,170.24617 -114.186167,169.414898 -113.235874,168.620848 -112.373253,167.867512 -111.59604,167.158311 -110.901868,166.496581 -110.288262,165.885577 -109.752649,165.328468 -109.292353,164.828335 -108.904605,164.388166 -108.586539,164.010854 -108.3352,163.699197 -108.147544,163.455891 -108.020443,163.283531 -107.950685,163.184609 -94.483135,142.826817 -65.534538,158.21437 -74.875258,180.765768 -74.918231,180.878927 -74.989998,181.080699 -75.086699,181.372352 -75.204431,181.755028 -75.339256,182.229741 -75.487204,182.797376 -75.644272,183.458689 -75.806434,184.214305 -75.96964,185.064717 -76.129824,186.010287 -76.282904,187.051245 -76.424788,188.187686 -76.551378,189.419574 -76.658572,190.746738 -76.74227,192.168874 -76.798377,193.685544 -76.822807,195.296178 -76.811486,197.000069 -76.760356,198.796382 -76.665383,200.684146 -76.522552,202.662259 -76.327882,204.729486 -76.077419,206.884464 -75.767248,209.125698 -75.393492,211.451565 -75.34211,211.748163 -75.316022,211.896947 -75.302878,211.971459 -75.296281,212.008746 -75.292977,212.027397 -75.291033,212.028914 -54.187316,218.377505 -54.184858,218.377312 -54.171811,218.36358 -54.145737,218.336122 -54.093664,218.281228 -53.989818,218.171533 -53.783323,217.952511 -52.18836,216.21889 -50.693121,214.520774 -49.295271,212.861655 -47.992367,211.24494 -46.781866,209.673948 -45.661127,208.151905 -44.627411,206.681944 -43.677886,205.267101 -42.809632,203.910314 -42.01964,202.614417 -41.304817,201.382141 -40.661988,200.216111 -40.087902,199.118843 -39.579232,198.092741 -39.132581,197.140098 -38.744483,196.26309 -38.411406,195.46378 -38.12976,194.744109 -37.895895,194.105898 -37.706108,193.55085 -37.556644,193.08054 -37.443703,192.696423 -37.363441,192.399825 -37.311974,192.191947 -37.285382,192.073859 -32.633578,168.111904 0,171.25 0.000347,195.659314 0.003948,195.780305 0.014859,195.994182 0.03713,196.30064 0.074804,196.69924 0.131906,197.189413 0.212445,197.770457 0.320406,198.441537 0.45975,199.201692 0.634406,200.049827 0.848269,200.984719 1.105199,202.00502 1.409012,203.109252 1.763481,204.295812 2.172331,205.562973 2.639231,206.908885 3.1678,208.331577 3.761593,209.828957 4.424103,211.398815 5.15876,213.038825 5.96892,214.746547 6.857869,216.519426 7.828814,218.354798 8.884886,220.24989 10.02913,222.201822 11.264506,224.207613 11.42548,224.461971 11.506519,224.589446 11.547178,224.653257 11.567541,224.685181 11.577732,224.701147 11.580109,224.701805 33.506901,222.491096 33.509099,222.489977 33.515897,222.472297 33.529478,222.436951 33.55658,222.366308 33.610543,222.225222 33.717503,221.943851 34.52763,219.731828 35.259209,217.59077 35.915737,215.52301 36.500773,213.53076 37.017937,211.616114 37.470905,209.781041 37.863404,208.027388 38.199214,206.356877 38.482156,204.771103 38.716095,203.271533 38.904934,201.859508 39.05261,200.536236 39.16309,199.302799 39.240367,198.160145 39.288458,197.109092 39.311398,196.150324 39.313238,195.284394 39.298039,194.511723 39.26987,193.832598 39.232802,193.247171 39.190909,192.755465 39.148258,192.357366 39.108907,192.05263 39.076905,191.84088 39.056282,191.721605 34.184146,167.803476 65.534538,158.21437 74.875898,180.765503 74.925527,180.875905 75.017454,181.069327 75.155306,181.343934 75.34265,181.697776 75.582986,182.128785 75.87975,182.634778 76.236305,183.213461 76.655941,183.862427 77.141869,184.579164 77.697221,185.36105 78.325045,186.205362 79.028303,187.109275 79.809867,188.069864 80.672516,189.084108 81.618934,190.148894 82.651708,191.261015 83.773324,192.417179 84.986163,193.614007 86.292502,194.848039 87.694509,196.115733 89.194242,197.413473 90.793645,198.737571 92.494548,200.084266 94.298664,201.449734 96.207586,202.830085 96.453645,203.003479 96.577298,203.090238 96.63928,203.133632 96.670311,203.155333 96.685836,203.166184 96.688283,203.165883 116.099996,192.732433 116.101598,192.730559 116.101113,192.711623 116.100135,192.67377 116.09814,192.598134 116.094004,192.447137 116.085146,192.146251 115.9871,189.792586 115.843644,187.534544 115.658899,185.37294 115.437002,183.308458 115.182095,181.341645 114.898331,179.472916 114.589859,177.702549 114.26083,176.030689 113.915384,174.457347 113.557656,172.982401 113.191762,171.605594 112.821803,170.326537 112.451857,169.144711 112.085977,168.059464 111.728186,167.070014 111.382476,166.175449 111.052798,165.37473 110.743068,164.666692 110.457153,164.050041 110.198874,163.523363 109.972002,163.085117 109.780251,162.733644 109.627278,162.467164 109.516679,162.283779 109.451982,162.181475 95.797643,141.948491 121.092036,121.092036 138.352273,138.351783 138.440373,138.434789 138.599322,138.578308 138.831768,138.779258 139.140261,139.034472 139.527243,139.3407 139.995052,139.69461 140.545918,140.092795 141.181959,140.531775 141.905181,141.007997 142.717475,141.517841 143.620613,142.057626 144.616251,142.623607 145.705923,143.211984 146.891042,143.818902 148.172894,144.440457 149.552643,145.072698 151.031326,145.711631 152.609849,146.353222 154.288992,146.993404 156.069403,147.628076 157.9516,148.253109 159.935966,148.86435 162.022754,149.457627 164.212081,150.028749 166.503932,150.573515 166.797616,150.639547 166.945058,150.672382 167.018929,150.688754 167.055902,150.696928 167.074397,150.701012 167.076543,150.699797 181.017919,133.632006 181.018682,133.62966 181.010988,133.612352 180.995598,133.577755 180.96481,133.508639 180.903205,133.370719 180.779877,133.096127 179.788587,130.959144 178.791935,128.927883 177.794043,127.001521 176.798993,125.179104 175.810824,123.459555 174.833528,121.841666 173.871047,120.324107 172.92727,118.905424 172.006029,117.584042 171.111093,116.358266 170.24617,115.226284 169.414898,114.186167 168.620848,113.235874 167.867512,112.373253 167.158311,111.59604 166.496581,110.901868 165.885577,110.288262 165.328468,109.752649 164.828335,109.292353 164.388166,108.904605 164.010854,108.586539 163.699197,108.3352 163.455891,108.147544 163.283531,108.020443 163.184609,107.950685 142.826817,94.483135 158.21437,65.534538 180.765768,74.875258 180.878927,74.918231 181.080699,74.989998 181.372352,75.086699 181.755028,75.204431 182.229741,75.339256 182.797376,75.487204 183.458689,75.644272 184.214305,75.806434 185.064717,75.96964 186.010287,76.129824 187.051245,76.282904 188.187686,76.424788 189.419574,76.551378 190.746738,76.658572 192.168874,76.74227 193.685544,76.798377 195.296178,76.822807 197.000069,76.811486 198.796382,76.760356 200.684146,76.665383 202.662259,76.522552 204.729486,76.327882 206.884464,76.077419 209.125698,75.767248 211.451565,75.393492 211.748163,75.34211 211.896947,75.316022 211.971459,75.302878 212.008746,75.296281 212.027397,75.292977 212.028914,75.291033 218.377505,54.187316 218.377312,54.184858 218.36358,54.171811 218.336122,54.145737 218.281228,54.093664 218.171533,53.989818 217.952511,53.783323 216.21889,52.18836 214.520774,50.693121 212.861655,49.295271 211.24494,47.992367 209.673948,46.781866 208.151905,45.661127 206.681944,44.627411 205.267101,43.677886 203.910314,42.809632 202.614417,42.01964 201.382141,41.304817 200.216111,40.661988 199.118843,40.087902 198.092741,39.579232 197.140098,39.132581 196.26309,38.744483 195.46378,38.411406 194.744109,38.12976 194.105898,37.895895 193.55085,37.706108 193.08054,37.556644 192.696423,37.443703 192.399825,37.363441 192.191947,37.311974 192.073859,37.285382 168.111904,32.633578 z"></path><g class="guides"><polyline fill="none" stroke="#444" stroke-width="0.5" stroke-miterlimit="10" points="10,0 -10,0"></polyline><polyline fill="none" stroke="#444" stroke-width="0.5" stroke-miterlimit="10" points="0,10 0,-10"></polyline></g><circle fill="#c00" class="firstmarker" stroke="none" stroke-miterlimit="10" cx="198.991171" cy="-20.062744" r="9.8125"></circle><g class="geartext"><g class="text"><polyline fill="none" stroke="#444" stroke-width="0.5" stroke-linecap="square" stroke-miterlimit="1" points="13.36 -140.62 10.37 -140.87 7.37 -141.06 4.37 -141.18 1.37 -141.24 "></polyline><polyline fill="none" stroke="#444" stroke-width="0.5" stroke-linecap="square" stroke-miterlimit="1" points="7.06 -135.07 7.68 -147.05 "></polyline><polyline fill="none" stroke="#444" stroke-width="0.5" stroke-linecap="square" stroke-miterlimit="1" points="13.92 -146.59 10.59 -143.86 7.37 -141.06 4.28 -138.18 1.32 -135.24 "></polyline><polyline fill="none" stroke="#444" stroke-width="0.5" stroke-linecap="square" stroke-miterlimit="1" points="12.79 -134.64 10.15 -137.88 7.37 -141.06 4.47 -144.18 1.43 -147.24 "></polyline><polyline fill="none" stroke="#444" stroke-width="0.5" stroke-linecap="square" stroke-miterlimit="1" points="26.99 -132.53 23.63 -130.12 20.86 -130.59 18.49 -133.98 20.13 -145.87 23.7 -148.37 26.85 -147.83 29.38 -144.29 26.99 -132.53 "></polyline><polyline fill="none" stroke="#444" stroke-width="0.5" stroke-linecap="square" stroke-miterlimit="1" points="63.25 -136.29 55.67 -119.96 54.92 -125.24 53.97 -130.53 52.81 -135.84 51.46 -141.16 45.29 -124.25 "></polyline><polyline fill="none" stroke="#444" stroke-width="0.5" stroke-linecap="square" stroke-miterlimit="1" points="76.86 -122.07 74.25 -123.67 71.61 -125.22 68.93 -126.71 66.23 -128.15 "></polyline><polyline fill="none" stroke="#444" stroke-width="0.5" stroke-linecap="square" stroke-miterlimit="1" points="73.66 -116.99 71.16 -118.53 68.63 -120.01 66.07 -121.44 63.47 -122.82 "></polyline><polyline fill="none" stroke="#444" stroke-width="0.5" stroke-linecap="square" stroke-miterlimit="1" points="83.68 -121.16 87.99 -121.79 77.45 -107.2 "></polyline><polyline fill="none" stroke="#444" stroke-width="0.5" stroke-linecap="square" stroke-miterlimit="1" points="79.71 -105.53 77.45 -107.2 75.16 -108.82 "></polyline><polyline fill="none" stroke="#444" stroke-width="0.5" stroke-linecap="square" stroke-miterlimit="1" points="89.84 -108.99 92.14 -107.06 94.39 -105.08 96.6 -103.05 96.67 -98.83 94.57 -96.69 90.45 -96.49 88.38 -98.39 86.27 -100.24 86.03 -104.36 91.75 -111.31 96.05 -111.61 100.41 -111.78 102.76 -109.62 "></polyline><polyline fill="none" stroke="#444" stroke-width="0.5" stroke-linecap="square" stroke-miterlimit="1" points="112.64 -85.23 114.42 -82.82 116.15 -80.37 117.83 -77.89 122 -76.97 124.54 -78.57 125.34 -82.85 123.55 -85.49 121.71 -88.1 119.81 -90.66 105.46 -79.8 "></polyline><polyline fill="none" stroke="#444" stroke-width="0.5" stroke-linecap="square" stroke-miterlimit="1" points="114.75 -65.75 125.16 -71.72 "></polyline><polyline fill="none" stroke="#444" stroke-width="0.5" stroke-linecap="square" stroke-miterlimit="1" points="127.76 -73.21 130.36 -74.7 "></polyline><polyline fill="none" stroke="#444" stroke-width="0.5" stroke-linecap="square" stroke-miterlimit="1" points="124.94 -51.79 121.07 -53.22 122.63 -57.04 136.23 -63.37 "></polyline><polyline fill="none" stroke="#444" stroke-width="0.5" stroke-linecap="square" stroke-miterlimit="1" points="133.26 -55.23 132.05 -58.05 130.79 -60.84 129.47 -63.6 128.09 -66.34 "></polyline><polyline fill="none" stroke="#444" stroke-width="0.5" stroke-linecap="square" stroke-miterlimit="1" points="127.62 -34.7 126.85 -37.4 126.03 -40.09 125.15 -42.76 127.03 -46.43 132.66 -48.49 136.5 -46.63 137.46 -43.73 138.36 -40.8 139.2 -37.85 "></polyline><polyline fill="none" stroke="#444" stroke-width="0.5" stroke-linecap="square" stroke-miterlimit="1" points="134.83 -30.58 138.38 -28.31 141.91 -25.9 142.42 -22.88 139.91 -19.44 130.99 -18.2 "></polyline><polyline fill="none" stroke="#444" stroke-width="0.5" stroke-linecap="square" stroke-miterlimit="1" points="128.98 -29.25 146.53 -33.23 "></polyline><polyline fill="none" stroke="#444" stroke-width="0.5" stroke-linecap="square" stroke-miterlimit="1" points="132.24 1.4 132.18 4.21 132.06 7.02 131.88 9.82 134.63 12.91 146.58 14.05 149.84 11.16 150.04 7.97 150.17 4.79 150.24 1.6 "></polyline><polyline fill="none" stroke="#444" stroke-width="0.5" stroke-linecap="square" stroke-miterlimit="1" points="150.17 4.79 132.18 4.21 "></polyline><polyline fill="none" stroke="#444" stroke-width="0.5" stroke-linecap="square" stroke-miterlimit="1" points="140.68 31.9 141.32 28.91 141.91 25.9 142.42 22.88 142.88 19.85 "></polyline><polyline fill="none" stroke="#444" stroke-width="0.5" stroke-linecap="square" stroke-miterlimit="1" points="134.83 30.58 135.45 27.71 136 24.82 136.5 21.93 136.93 19.03 "></polyline><polyline fill="none" stroke="#444" stroke-width="0.5" stroke-linecap="square" stroke-miterlimit="1" points="129.85 47.46 130.83 44.69 131.75 41.91 132.61 39.1 133.41 36.27 136.44 40.23 139.37 44.33 142.18 48.57 125.15 42.76 "></polyline><polyline fill="none" stroke="#444" stroke-width="0.5" stroke-linecap="square" stroke-miterlimit="1" points="124.02 67.61 122.55 70.23 121.04 72.81 119.46 75.37 120.34 79.54 122.84 81.2 127.07 80.17 128.75 77.45 130.36 74.7 131.92 71.92 116.12 63.3 "></polyline><polyline fill="none" stroke="#444" stroke-width="0.5" stroke-linecap="square" stroke-miterlimit="1" points="109.25 94.19 111.23 91.85 113.15 89.47 115.03 87.04 116.85 84.58 "></polyline><polyline fill="none" stroke="#444" stroke-width="0.5" stroke-linecap="square" stroke-miterlimit="1" points="104.71 90.27 106.6 88.03 108.45 85.75 110.24 83.42 111.99 81.06 "></polyline><polyline fill="none" stroke="#444" stroke-width="0.5" stroke-linecap="square" stroke-miterlimit="1" points="92.39 102.85 94.55 100.86 96.67 98.83 98.75 96.76 100.78 94.64 101.6 99.56 102.26 104.55 102.76 109.62 90.45 96.49 "></polyline><polyline fill="none" stroke="#444" stroke-width="0.5" stroke-linecap="square" stroke-miterlimit="1" points="77.78 117.9 75.26 119.53 72.71 121.1 70.12 122.62 68.93 126.71 70.37 129.35 74.59 130.43 77.34 128.82 80.06 127.14 82.74 125.42 72.83 110.39 "></polyline><polyline fill="none" stroke="#444" stroke-width="0.5" stroke-linecap="square" stroke-miterlimit="1" points="58.21 118.75 60.85 124.14 60.72 130.85 60.34 137.6 55.11 133.31 50.1 128.85 47.92 123.26 "></polyline><polyline fill="none" stroke="#444" stroke-width="0.5" stroke-linecap="square" stroke-miterlimit="1" points="60.85 124.14 58.2 125.4 55.52 126.61 52.82 127.76 50.1 128.85 "></polyline><polyline fill="none" stroke="#444" stroke-width="0.5" stroke-linecap="square" stroke-miterlimit="1" points="34.76 140 37.72 139.23 40.67 138.4 43.6 137.5 46.51 136.55 "></polyline><polyline fill="none" stroke="#444" stroke-width="0.5" stroke-linecap="square" stroke-miterlimit="1" points="33.31 134.18 36.16 133.44 38.98 132.64 41.79 131.78 44.58 130.87 "></polyline><polyline fill="none" stroke="#444" stroke-width="0.5" stroke-linecap="square" stroke-miterlimit="1" points="29.38 144.29 26.85 147.83 23.63 130.12 "></polyline><polyline fill="none" stroke="#444" stroke-width="0.5" stroke-linecap="square" stroke-miterlimit="1" points="20.86 130.59 23.63 130.12 26.39 129.59 "></polyline><polyline fill="none" stroke="#444" stroke-width="0.5" stroke-linecap="square" stroke-miterlimit="1" points="4.1 132.19 6.9 132.07 9.71 131.89 12.5 131.66 15.3 131.36 15.99 137.32 13.36 140.62 10.37 140.87 7.37 141.06 4.47 144.18 4.56 147.18 7.84 150.05 11.03 149.84 14.21 149.58 17.03 146.26 "></polyline></g></g><g class="guides gearguides" opacity="0.2"><circle class="pitch" fill="none" stroke="#f00" stroke-miterlimit="10" cx="0" cy="0" r="200"></circle><circle class="outer" fill="none" stroke="#ccc" stroke-miterlimit="10" stroke-dasharray="2,2" cx="0" cy="0" r="225"></circle><circle class="base" fill="none" stroke="#00f" stroke-miterlimit="10" stroke-dasharray="2,2" cx="0" cy="0" r="195.63"></circle></g></svg>