<svg version="1.2" class="svggear" xmlns="http://www.w3.org/2000/svg" xmlns:xlink="http://www.w3.org/1999/xlink" x="0px" y="0px" width="526px" height="526px" viewBox="-263 -263 526 526" overflow="scroll" xml:space="preserve"><path id="gearpoly2" data-id="2" class="gear" fill="#ddd" stroke="#444" stroke-width="1" stroke-miterlimit="10" d="M158.75,0 183.430607,-0.000325 183.554696,-0.004128 183.777845,-0.016016 184.099692,-0.040597 184.519712,-0.082467 185.037221,-0.146204 185.651377,-0.236359 186.361176,-0.357458 187.165459,-0.513991 188.062908,-0.71041 189.052049,-0.951125 190.131255,-1.240497 191.298745,-1.582833 192.552587,-1.982384 193.8907,-2.443337 195.310853,-2.969812 196.810673,-3.56586 198.387639,-4.235452 200.039093,-4.98248 201.762236,-5.810752 203.554132,-6.723985 205.411713,-7.725802 207.331779,-8.81973 209.311002,-10.009192 211.345931,-11.297507 211.862951,-11.635409 212.122665,-11.806768 212.155186,-11.828301 212.163318,-11.833688 212.167384,-11.836383 212.169951,-11.838994 209.813149,-33.6852 209.810083,-33.687203 209.805536,-33.688968 209.796442,-33.692497 209.760078,-33.706599 209.469791,-33.818623 208.892599,-34.03848 206.62972,-34.86314 204.442346,-35.603104 202.333146,-36.262348 200.304638,-36.844928 198.359197,-37.354971 196.499047,-37.796672 194.726265,-38.174288 193.042772,-38.492137 191.450336,-38.754587 189.950572,-38.966057 188.544935,-39.13101 187.234726,-39.253947 186.021086,-39.339403 184.904994,-39.391942 183.887272,-39.416154 182.96858,-39.416646 182.149418,-39.398039 181.430122,-39.364965 180.810869,-39.322058 180.291673,-39.273953 179.872387,-39.225277 179.552704,-39.180649 179.332154,-39.14467 179.210108,-39.12192 155.09731,-33.858336 145.025341,-64.569442 167.572065,-74.608246 167.68388,-74.662192 167.882902,-74.763815 168.166925,-74.917178 168.533602,-75.126266 168.980447,-75.394982 169.504836,-75.727143 170.104015,-76.126473 170.775096,-76.596604 171.515065,-77.141068 172.320783,-77.763292 173.188988,-78.466599 174.116303,-79.254199 175.099233,-80.129191 176.134173,-81.094551 177.217411,-82.153139 178.34513,-83.307687 179.513413,-84.5608 180.718248,-85.914951 181.955528,-87.372481 183.221062,-88.93559 184.51057,-90.606342 185.819697,-92.386656 187.14401,-94.278306 188.479005,-96.28292 188.813889,-96.801901 188.981452,-97.06408 189.002403,-97.096979 189.00764,-97.105208 189.010259,-97.109323 189.011543,-97.112753 177.972844,-116.111657 177.969229,-116.112241 177.964356,-116.112003 177.954613,-116.111528 177.915657,-116.10962 177.604903,-116.093889 176.988188,-116.059974 174.585525,-115.892942 172.28629,-115.679247 170.091301,-115.423608 168.00121,-115.130753 166.016507,-114.805418 164.137521,-114.452341 162.364413,-114.076255 160.697185,-113.681885 159.135674,-113.273944 157.679559,-112.857122 156.328354,-112.436091 155.081415,-112.015489 153.937941,-111.599925 152.896971,-111.193966 151.957388,-110.80214 151.117921,-110.428924 150.377147,-110.078742 149.73349,-109.755963 149.185226,-109.464893 148.730483,-109.209771 148.367245,-108.994765 148.093351,-108.823968 147.906503,-108.701394 147.804262,-108.63097 127.917017,-94.014889 106.224484,-117.974241 122.738792,-136.315724 122.818997,-136.410485 122.959479,-136.584272 123.156569,-136.839898 123.406501,-137.18005 123.705417,-137.607283 124.049369,-138.124015 124.434324,-138.73253 124.856168,-139.434969 125.31071,-140.233334 125.793688,-141.129479 126.300773,-142.125113 126.827571,-143.221795 127.369631,-144.420932 127.922448,-145.723781 128.481469,-147.131442 129.042095,-148.644859 129.599687,-150.264818 130.149576,-151.991947 130.687057,-153.826714 131.207405,-155.769424 131.705874,-157.820222 132.177702,-159.97909 132.618118,-162.245845 133.022348,-164.620142 133.117191,-165.230464 133.163629,-165.538131 133.169387,-165.576707 133.170825,-165.586355 133.171544,-165.591179 133.171321,-165.594834 115.359417,-178.461354 115.355877,-178.460417 115.351523,-178.458218 115.342816,-178.453821 115.308003,-178.436233 115.030514,-178.295467 114.480911,-178.013643 112.353907,-176.883801 110.340369,-175.753398 108.439124,-174.627077 106.648846,-173.509424 104.968056,-172.404965 103.395126,-171.31816 101.928279,-170.253401 100.565595,-169.215003 99.305009,-168.207207 98.144317,-167.234166 97.081179,-166.29995 96.113119,-165.408535 95.237528,-164.563806 94.451672,-163.769544 93.752691,-163.02943 93.137601,-162.347038 92.603302,-161.725831 92.146578,-161.169159 91.764103,-160.680254 91.452442,-160.262228 91.208058,-159.918068 91.027313,-159.650634 90.906474,-159.462659 90.841716,-159.356739 78.61871,-137.915412 49.056448,-150.980222 56.682866,-174.452974 56.717594,-174.572166 56.775245,-174.788067 56.851323,-175.101757 56.941295,-175.514158 57.040598,-176.026034 57.14464,-176.637991 57.248808,-177.350472 57.348474,-178.163761 57.438994,-179.077983 57.515722,-180.093097 57.574006,-181.208903 57.609199,-182.42504 57.616663,-183.740983 57.59177,-185.156046 57.529913,-186.669382 57.426508,-188.279984 57.276998,-189.986684 57.076859,-191.788154 56.821606,-193.68291 56.506797,-195.669309 56.128036,-197.745552 55.680981,-199.909685 55.161349,-202.159603 54.564917,-204.493046 54.403321,-205.089179 54.320605,-205.389135 54.310175,-205.426718 54.307564,-205.436117 54.306258,-205.440816 54.304569,-205.444065 32.799299,-209.953461 32.796447,-209.951165 32.793363,-209.947386 32.787197,-209.939828 32.762548,-209.909601 32.566304,-209.668139 32.178845,-209.187137 30.695278,-207.289844 29.315596,-205.43819 28.036838,-203.635938 26.855928,-201.88674 25.769674,-200.194127 24.774774,-198.561513 23.86782,-196.992187 23.0453,-195.48931 22.303605,-194.055916 21.639032,-192.694903 21.047787,-191.409036 20.525991,-190.200943 20.069681,-189.07311 19.674822,-188.027879 19.337302,-187.06745 19.052943,-186.193874 18.817504,-185.409054 18.626685,-184.714743 18.476132,-184.112539 18.361442,-183.603889 18.278169,-183.190084 18.221825,-182.872255 18.18789,-182.651382 18.171812,-182.528279 15.726513,-157.969109 -16.593894,-157.880351 -19.174043,-182.425721 -19.190796,-182.548733 -19.225944,-182.769417 -19.284033,-183.086931 -19.369578,-183.500273 -19.487059,-184.008285 -19.640917,-184.609653 -19.835547,-185.302906 -20.075293,-186.086421 -20.364445,-186.958421 -20.707235,-187.916982 -21.107829,-188.960029 -21.570326,-190.085339 -22.09875,-191.290548 -22.697049,-192.573148 -23.369087,-193.93049 -24.118643,-195.359789 -24.949404,-196.858126 -25.864965,-198.422447 -26.868816,-200.049572 -27.964351,-201.736193 -29.15485,-203.47888 -30.443487,-205.274081 -31.833318,-207.118129 -33.327283,-209.007245 -33.717378,-209.486112 -33.914946,-209.726492 -33.93976,-209.756583 -33.945968,-209.764107 -33.949072,-209.76787 -33.951937,-209.77015 -55.432115,-205.142708 -55.433787,-205.13945 -55.435067,-205.134743 -55.437626,-205.12533 -55.447849,-205.087691 -55.528916,-204.787285 -55.687236,-204.190274 -56.270843,-201.85359 -56.77811,-199.600852 -57.213272,-197.434296 -57.580624,-195.356004 -57.884519,-193.367906 -58.129361,-191.471777 -58.319603,-189.669234 -58.459737,-187.961739 -58.554294,-186.350594 -58.607838,-184.83694 -58.624959,-183.421762 -58.610268,-182.10588 -58.568396,-180.889955 -58.503984,-179.774486 -58.421682,-178.759808 -58.326142,-177.846098 -58.222011,-177.033368 -58.113931,-176.32147 -58.00653,-175.710094 -57.904417,-175.198771 -57.812181,-174.78687 -57.734382,-174.473602 -57.675546,-174.258021 -57.640163,-174.139022 -49.88494,-150.708511 -79.375,-137.481533 -91.715585,-158.855403 -91.780923,-158.960966 -91.902793,-159.148275 -92.085004,-159.414711 -92.331275,-159.757524 -92.645227,-160.173832 -93.030381,-160.660629 -93.490156,-161.214784 -94.027859,-161.833047 -94.646687,-162.512051 -95.349723,-163.248314 -96.139929,-164.038248 -97.020146,-164.878156 -97.993088,-165.76424 -99.061341,-166.692603 -100.227359,-167.659254 -101.493461,-168.660112 -102.861828,-169.69101 -104.334501,-170.747697 -105.913377,-171.825846 -107.600208,-172.921057 -109.396597,-174.02886 -111.304,-175.144722 -113.323716,-176.264049 -115.456893,-177.382192 -116.008035,-177.660993 -116.286294,-177.800233 -116.321202,-177.81763 -116.329934,-177.821979 -116.3343,-177.824153 -116.337845,-177.825071 -134.078813,-164.860917 -134.079016,-164.85726 -134.07827,-164.85244 -134.07678,-164.8428 -134.07081,-164.804256 -134.022682,-164.496849 -133.924488,-163.887058 -133.507225,-161.515016 -133.054365,-159.250714 -132.570687,-157.09447 -132.060962,-155.046441 -131.529952,-153.106618 -130.982402,-151.274831 -130.423036,-149.550748 -129.856554,-147.933876 -129.287625,-146.423561 -128.720881,-145.018992 -128.160916,-143.719199 -127.612278,-142.523056 -127.079465,-141.429284 -126.56692,-140.436451 -126.079027,-139.542972 -125.620107,-138.747116 -125.194411,-138.047004 -124.80612,-137.440612 -124.459335,-136.925777 -124.158077,-136.500193 -123.90628,-136.161418 -123.70779,-135.906878 -123.566355,-135.733866 -123.485631,-135.639547 -106.870834,-117.389042 -128.431448,-93.310909 -148.398669,-107.817543 -148.501295,-107.887404 -148.688814,-108.00895 -148.963642,-108.17824 -149.328056,-108.391248 -149.784193,-108.643868 -150.334047,-108.931923 -150.979467,-109.251162 -151.722153,-109.59727 -152.563657,-109.96587 -153.505378,-110.35253 -154.548562,-110.752764 -155.694302,-111.162042 -156.943531,-111.575789 -158.297028,-111.989393 -159.755411,-112.39821 -161.319139,-112.79757 -162.988508,-113.182776 -164.763654,-113.549118 -166.644552,-113.89187 -168.631011,-114.206299 -170.722679,-114.48767 -172.91904,-114.73125 -175.219413,-114.932314 -177.622958,-115.086147 -178.23985,-115.116674 -178.550685,-115.130698 -178.589652,-115.132393 -178.599397,-115.132814 -178.60427,-115.133025 -178.607882,-115.132421 -189.542067,-96.073175 -189.540764,-96.069753 -189.538123,-96.065652 -189.53284,-96.057452 -189.511709,-96.024669 -189.342709,-95.763414 -189.00498,-95.24628 -187.658994,-93.249029 -186.324312,-91.36468 -185.005427,-89.591583 -183.706761,-87.927939 -182.432662,-86.371804 -181.187395,-84.921092 -179.975141,-83.573579 -178.799993,-82.326901 -177.66595,-81.178565 -176.576914,-80.125942 -175.536688,-79.16628 -174.548967,-78.296701 -173.61734,-77.514205 -172.745285,-76.815677 -171.936162,-76.197888 -171.193214,-75.657497 -170.519561,-75.191058 -169.918198,-74.795025 -169.391991,-74.465749 -168.943678,-74.199492 -168.575858,-73.992421 -168.290997,-73.84062 -168.09142,-73.740092 -167.979311,-73.686761 -145.37779,-63.771942 -155.280932,-33.005981 -179.422276,-38.13705 -179.544444,-38.159129 -179.765189,-38.193897 -180.085112,-38.236768 -180.504659,-38.28314 -181.024111,-38.328393 -181.643591,-38.367898 -182.363057,-38.397021 -183.18231,-38.411128 -184.100985,-38.405591 -185.118558,-38.37579 -186.234345,-38.317121 -187.447498,-38.225001 -188.757012,-38.09487 -190.161721,-37.922199 -191.660301,-37.702495 -193.251271,-37.431303 -194.932993,-37.104213 -196.703675,-36.716865 -198.56137,-36.264955 -200.503981,-35.744234 -202.529258,-35.150522 -204.634807,-34.479703 -206.818083,-33.727737 -209.076399,-32.890661 -209.652375,-32.667637 -209.942041,-32.55402 -209.978328,-32.539719 -209.987402,-32.53614 -209.99194,-32.53435 -209.994994,-32.53233 -212.231775,-10.673509 -212.229193,-10.670912 -212.225112,-10.66824 -212.216951,-10.662898 -212.184313,-10.641543 -211.923661,-10.471614 -211.404793,-10.136556 -209.362819,-8.859437 -207.377092,-7.680864 -205.451047,-6.597498 -203.587992,-5.605898 -201.791107,-4.702521 -200.063442,-3.883725 -198.40791,-3.145779 -196.827289,-2.484858 -195.324218,-1.897057 -193.901195,-1.378389 -192.560571,-0.924793 -191.304553,-0.532135 -190.1352,-0.196216 -189.054421,0.087224 -188.063973,0.322503 -187.165459,0.513991 -186.360329,0.666104 -185.649875,0.783302 -185.035233,0.870083 -184.517381,0.930976 -184.097138,0.970539 -183.775162,0.993352 -183.55195,1.004014 -183.427842,1.007135 -158.747606,0.871906 -155.280932,33.005981 -179.42214,38.137686 -179.542727,38.167205 -179.758529,38.225229 -180.068231,38.316188 -180.470367,38.444471 -180.963316,38.61441 -181.545307,38.830286 -182.214418,39.096314 -182.96858,39.416646 -183.805579,39.795363 -184.723058,40.236472 -185.718517,40.7439 -186.789319,41.32149 -187.93269,41.972998 -189.145724,42.702087 -190.425384,43.512325 -191.768503,44.407177 -193.171794,45.390006 -194.631843,46.464067 -196.145124,47.632501 -197.707991,48.898333 -199.316689,50.264471 -200.967357,51.733698 -202.656026,53.308672 -204.378632,54.991919 -204.8141,55.429932 -205.032511,55.651544 -205.059844,55.679368 -205.066678,55.686328 -205.070095,55.689809 -205.072064,55.692896 -198.224681,76.571704 -198.221266,76.573026 -198.216451,76.573807 -198.206822,76.575368 -198.168321,76.581601 -197.861087,76.630823 -197.250797,76.725871 -194.86591,77.062031 -192.572489,77.331044 -190.372315,77.537355 -188.267009,77.685454 -186.258037,77.779871 -184.346702,77.825173 -182.534148,77.825955 -180.821359,77.78684 -179.209155,77.712469 -177.698197,77.6075 -176.288982,77.4766 -174.981844,77.324442 -173.776957,77.155701 -172.674331,76.975044 -171.673815,76.78713 -170.775096,76.596604 -169.977703,76.408091 -169.281002,76.226189 -168.684202,76.05547 -168.186354,75.900469 -167.786351,75.765683 -167.482931,75.655564 -167.274681,75.574516 -167.160033,75.526889 -144.668518,65.364994 -128.431448,93.310909 -148.398287,107.818068 -148.496442,107.894083 -148.669986,108.034864 -148.915917,108.243928 -149.231109,108.524683 -149.61232,108.880431 -150.056191,109.31436 -150.559251,109.82954 -151.117921,110.428924 -151.72852,111.115338 -152.387263,111.891483 -153.09027,112.759931 -153.83357,113.72312 -154.613099,114.783353 -155.424714,115.942795 -156.264187,117.203468 -157.127219,118.567252 -158.009436,120.035881 -158.906398,121.61094 -159.813603,123.293864 -160.726493,125.085935 -161.640454,126.988281 -162.550825,129.001873 -163.452902,131.127527 -164.341942,133.365896 -164.561606,133.943162 -164.670997,134.23445 -164.68465,134.270986 -164.688062,134.280124 -164.689768,134.284694 -164.69031,134.288315 -149.942739,150.576974 -149.939082,150.576793 -149.934365,150.575548 -149.924934,150.573057 -149.887226,150.563092 -149.586533,150.483095 -148.990346,150.321698 -146.674915,149.658775 -144.470353,148.971712 -142.37648,148.265295 -140.392951,147.544285 -138.51926,146.813417 -136.754742,146.077392 -135.098574,145.340875 -133.549773,144.608487 -132.107201,143.884803 -130.769567,143.174347 -129.535426,142.481585 -128.403185,141.810921 -127.371099,141.166696 -126.437279,140.553179 -125.599694,139.974565 -124.856168,139.434969 -124.204388,138.938424 -123.641906,138.488875 -123.16614,138.090175 -122.774377,137.746082 -122.463779,137.460253 -122.231381,137.236242 -122.0741,137.077498 -121.988736,136.987357 -105.574929,118.555881 -79.375,137.481533 -91.715022,158.855728 -91.773773,158.965094 -91.875053,159.164291 -92.014688,159.455308 -92.188437,159.839992 -92.391994,160.320036 -92.620996,160.896988 -92.871021,161.572242 -93.137601,162.347038 -93.416221,163.222461 -93.702326,164.19944 -93.991325,165.278745 -94.278599,166.460989 -94.559499,167.746624 -94.829358,169.13594 -95.083494,170.629067 -95.317211,172.225972 -95.525811,173.926461 -95.704592,175.730177 -95.848859,177.636598 -95.953924,179.645042 -96.015115,181.754662 -96.027779,183.964452 -95.987286,186.273241 -95.889038,188.679699 -95.854916,189.296402 -95.836372,189.607001 -95.833984,189.645931 -95.833384,189.655667 -95.833084,189.660536 -95.832106,189.664065 -75.734335,198.546117 -75.731068,198.544464 -75.727266,198.541408 -75.719663,198.535297 -75.689268,198.510855 -75.447109,198.315472 -74.968111,197.925538 -73.122495,196.378156 -71.387981,194.853817 -69.762458,193.356818 -68.243675,191.891369 -66.829244,190.461589 -65.516646,189.071503 -64.303229,187.725036 -63.186218,186.426012 -62.162711,185.178148 -61.22969,183.985049 -60.384019,182.850209 -59.622448,181.777003 -58.941621,180.768687 -58.338074,179.828393 -57.808245,178.959126 -57.348474,178.163761 -56.955006,177.445043 -56.624002,176.805577 -56.351534,176.247835 -56.133596,175.774145 -55.966107,175.386696 -55.844914,175.087527 -55.765798,174.878536 -55.724478,174.761466 -48.226476,151.247379 -16.593894,157.880351 -19.173396,182.425789 -19.182585,182.549596 -19.194088,182.772765 -19.203283,183.095418 -19.205546,183.517514 -19.196254,184.03885 -19.170789,184.659066 -19.124548,185.377635 -19.052943,186.193874 -18.951408,187.106938 -18.815405,188.115822 -18.640426,189.219363 -18.422001,190.416241 -18.155702,191.704979 -17.837145,193.083944 -17.462,194.55135 -17.025992,196.105257 -16.524906,197.743576 -15.954594,199.464069 -15.310976,201.26435 -14.590051,203.141889 -13.787891,205.094012 -12.900658,207.117906 -11.924597,209.21062 -10.856048,211.369067 -10.57404,211.918575 -10.430767,212.194779 -10.412751,212.229371 -10.408243,212.238022 -10.405989,212.242348 -10.403661,212.245174 11.569223,212.184832 11.571536,212.181993 11.573766,212.177655 11.578227,212.16898 11.596052,212.134289 11.737806,211.857303 12.016791,211.306254 13.073469,209.141971 14.038022,207.043928 14.914126,205.015191 15.705552,203.058692 16.416155,201.177222 17.049874,199.373433 17.610728,197.649834 18.102808,196.008787 18.530276,194.452508 18.897356,192.983065 19.208334,191.602371 19.467551,190.31219 19.679399,189.11413 19.848314,188.009644 19.978774,187.000028 20.075293,186.086421 20.142414,185.269801 20.184707,184.550988 20.206765,183.930643 20.213194,183.409262 20.208613,182.987186 20.197645,182.664588 20.184917,182.441486 20.175049,182.317731 17.460773,157.786831 49.056448,150.980222 56.683484,174.452773 56.725447,174.569614 56.80571,174.778168 56.928544,175.076666 57.098158,175.46319 57.318694,175.935676 57.594221,176.491913 57.928733,177.129551 58.326142,177.846098 58.790275,178.638925 59.32487,179.505269 59.933572,180.442234 60.619927,181.446795 61.387381,182.515802 62.239272,183.645981 63.178832,184.833937 64.209177,186.076161 65.333306,187.369031 66.5541,188.708812 67.874313,190.091668 69.296576,191.513658 70.823384,192.970744 72.457105,194.458793 74.199964,195.973582 76.054052,197.510803 76.535184,197.898101 76.778412,198.092151 76.808941,198.116426 76.816577,198.122495 76.820396,198.12553 76.823673,198.127165 96.872358,189.134863 96.873316,189.131329 96.873589,189.126458 96.874135,189.116719 96.876309,189.077777 96.893147,188.767081 96.923882,188.150199 97.008912,185.743238 97.036723,183.434262 97.011923,181.224575 96.939146,179.115322 96.823051,177.107486 96.668316,175.201886 96.479631,173.399179 96.261694,171.699861 96.01921,170.104264 95.756877,168.612555 95.479391,167.224742 95.191434,165.94067 94.897672,164.760022 94.602749,163.682319 94.311282,162.706927 94.027859,161.833047 93.757027,161.059727 93.503297,160.385857 93.271131,159.810171 93.064939,159.331252 92.88908,158.947529 92.747849,158.657283 92.645477,158.458645 92.586126,158.349603 80.128896,137.043506 106.224484,117.974241 122.739275,136.315289 122.825133,136.40496 122.983283,136.562838 123.216908,136.785569 123.529072,137.069687 123.922719,137.411624 124.400667,137.807705 124.96561,138.254158 125.620107,138.747116 126.366585,139.28262 127.207336,139.856625 128.144511,140.465004 129.180119,141.10355 130.316028,141.767985 131.553954,142.453959 132.89547,143.157058 134.341995,143.872807 135.894795,144.596677 137.554984,145.324087 139.323518,146.05041 141.201194,146.770976 143.188654,147.481081 145.286375,148.175987 147.494677,148.850931 149.813715,149.501128 150.410779,149.659247 150.711906,149.737591 150.749669,149.74735 150.759114,149.749789 150.763837,149.751008 150.767495,149.751169 165.425381,133.381757 165.424819,133.378139 165.423088,133.373579 165.419625,133.364459 165.405773,133.327999 165.294783,133.037316 165.071952,132.461265 164.170632,130.227813 163.256893,128.107146 162.335477,126.098583 161.411081,124.201286 160.488363,122.414256 159.571928,120.73634 158.666328,119.166231 157.776059,117.70247 156.90555,116.343446 156.059165,115.087403 155.241195,113.932437 154.455853,112.876501 153.707275,111.917409 152.999509,111.052835 152.336513,110.280319 151.722153,109.59727 151.160199,109.000964 150.654317,108.488554 150.20807,108.057069 149.824911,107.70342 149.508182,107.4244 149.261106,107.216691 149.086792,107.076865 148.988221,107.001391 128.942005,92.604114 145.025341,64.569442 167.57233,74.607652 167.687238,74.65465 167.89593,74.734553 168.19995,74.843003 168.600687,74.97559 169.099379,75.127854 169.697108,75.295293 170.394797,75.473366 171.193214,75.657497 172.092965,75.843084 173.094498,76.025499 174.1981,76.200098 175.403896,76.362219 176.711849,76.507195 178.121762,76.630353 179.633274,76.727022 181.245862,76.792537 182.95884,76.822245 184.771362,76.811507 186.68242,76.755709 188.690844,76.650259 190.795304,76.490599 192.994312,76.272207 195.28622,75.990602 197.669225,75.641349 198.278984,75.54295 198.585943,75.492042 198.62441,75.485597 198.63403,75.483983 198.63884,75.483176 198.642248,75.481835 205.374854,54.565734 205.372869,54.562657 205.369432,54.559195 205.36256,54.552273 205.335075,54.524599 205.11545,54.30419 204.677583,53.868576 202.945758,52.194815 201.248464,50.62914 199.589752,49.169001 197.973574,47.811719 196.403778,46.55449 194.884104,45.394385 193.418177,44.32836 192.00951,43.353252 190.661495,42.46579 189.377405,41.662593 188.160385,40.940178 187.013452,40.294959 185.939494,39.723259 184.941263,39.221306 184.021376,38.785243 183.18231,38.411128 182.426399,38.094943 181.755837,37.832594 181.17267,37.619919 180.678795,37.452689 180.27596,37.326617 179.965763,37.23736 179.749646,37.180523 179.628899,37.151666 155.459869,32.15263 z"></path><g class="guides"><polyline fill="none" stroke="#444" stroke-width="0.5" stroke-miterlimit="10" points="10,0 -10,0"></polyline><polyline fill="none" stroke="#444" stroke-width="0.5" stroke-miterlimit="10" points="0,10 0,-10"></polyline></g><circle fill="#c00" class="firstmarker" stroke="none" stroke-miterlimit="10" cx="186.41833" cy="-20.1111" r="9.8125"></circle><g class="geartext"><g class="text"><polyline fill="none" stroke="#444" stroke-width="0.5" stroke-linecap="square" stroke-miterlimit="1" points="-28.52 -125.55 -31.44 -124.85 -34.34 -124.09 -37.22 -123.25 -40.08 -122.35 "></polyline><polyline fill="none" stroke="#444" stroke-width="0.5" stroke-linecap="square" stroke-miterlimit="1" points="-32.74 -118.3 -35.94 -129.87 "></polyline><polyline fill="none" stroke="#444" stroke-width="0.5" stroke-linecap="square" stroke-miterlimit="1" points="-29.85 -131.4 -32.17 -127.76 -34.34 -124.09 -36.35 -120.38 -38.21 -116.65 "></polyline><polyline fill="none" stroke="#444" stroke-width="0.5" stroke-linecap="square" stroke-miterlimit="1" points="-27.19 -119.7 -30.71 -121.94 -34.34 -124.09 -38.09 -126.12 -41.95 -128.05 "></polyline><polyline fill="none" stroke="#444" stroke-width="0.5" stroke-linecap="square" stroke-miterlimit="1" points="-10 -119.33 -12.77 -119.07 -15.54 -118.74 -18.31 -118.34 -21.06 -117.88 -22.11 -123.79 -19.68 -127.24 -16.71 -127.66 -13.73 -128.02 -11 -131.29 -11.25 -134.28 -14.69 -136.96 -17.88 -136.58 -21.06 -136.13 -23.7 -132.65 "></polyline><polyline fill="none" stroke="#444" stroke-width="0.5" stroke-linecap="square" stroke-miterlimit="1" points="23.68 -135.7 20.58 -117.97 18.5 -122.87 16.2 -127.73 13.68 -132.55 10.94 -137.31 9.51 -119.37 "></polyline><polyline fill="none" stroke="#444" stroke-width="0.5" stroke-linecap="square" stroke-miterlimit="1" points="40.51 -125.37 37.58 -126.28 34.63 -127.12 31.66 -127.89 28.67 -128.59 "></polyline><polyline fill="none" stroke="#444" stroke-width="0.5" stroke-linecap="square" stroke-miterlimit="1" points="38.67 -119.66 35.87 -120.53 33.05 -121.33 30.21 -122.07 27.36 -122.74 "></polyline><polyline fill="none" stroke="#444" stroke-width="0.5" stroke-linecap="square" stroke-miterlimit="1" points="47.36 -126.15 51.41 -127.8 44.69 -111.1 "></polyline><polyline fill="none" stroke="#444" stroke-width="0.5" stroke-linecap="square" stroke-miterlimit="1" points="47.27 -110.03 44.69 -111.1 42.09 -112.11 "></polyline><polyline fill="none" stroke="#444" stroke-width="0.5" stroke-linecap="square" stroke-miterlimit="1" points="71.48 -117.75 68.71 -119.39 65.91 -120.96 63.08 -122.46 60.21 -123.9 57.59 -118.5 60.33 -117.13 63.04 -115.69 65.72 -114.19 66.81 -110.06 63.69 -104.93 59.74 -103.79 57.3 -105.15 54.84 -106.46 53.65 -110.4 "></polyline><polyline fill="none" stroke="#444" stroke-width="0.5" stroke-linecap="square" stroke-miterlimit="1" points="83.79 -97.75 86.05 -95.77 88.26 -93.74 90.42 -91.66 94.68 -91.61 96.84 -93.7 96.74 -98.07 94.42 -100.29 92.06 -102.47 89.65 -104.58 77.94 -90.92 "></polyline><polyline fill="none" stroke="#444" stroke-width="0.5" stroke-linecap="square" stroke-miterlimit="1" points="89.84 -79.17 98.85 -87.1 "></polyline><polyline fill="none" stroke="#444" stroke-width="0.5" stroke-linecap="square" stroke-miterlimit="1" points="101.1 -89.09 103.35 -91.07 "></polyline><polyline fill="none" stroke="#444" stroke-width="0.5" stroke-linecap="square" stroke-miterlimit="1" points="102.51 -67.53 98.44 -68.19 99.25 -72.23 111.38 -81.06 "></polyline><polyline fill="none" stroke="#444" stroke-width="0.5" stroke-linecap="square" stroke-miterlimit="1" points="110.02 -72.48 108.3 -75.02 106.53 -77.53 104.69 -79.99 102.8 -82.41 "></polyline><polyline fill="none" stroke="#444" stroke-width="0.5" stroke-linecap="square" stroke-miterlimit="1" points="108.2 -51.3 106.98 -53.81 105.7 -56.29 104.36 -58.73 105.54 -62.68 110.7 -65.74 114.82 -64.62 116.29 -61.93 117.7 -59.2 119.05 -56.44 "></polyline><polyline fill="none" stroke="#444" stroke-width="0.5" stroke-linecap="square" stroke-miterlimit="1" points="116.01 -48.52 119.91 -46.9 123.78 -45.12 124.8 -42.22 122.89 -38.41 114.3 -35.72 "></polyline><polyline fill="none" stroke="#444" stroke-width="0.5" stroke-linecap="square" stroke-miterlimit="1" points="110.48 -46.2 127.08 -53.15 "></polyline><polyline fill="none" stroke="#444" stroke-width="0.5" stroke-linecap="square" stroke-miterlimit="1" points="118.58 -16.69 118.94 -13.92 119.23 -11.15 119.46 -8.36 122.62 -5.72 134.6 -6.28 137.41 -9.62 137.15 -12.82 136.82 -16.01 136.41 -19.2 "></polyline><polyline fill="none" stroke="#444" stroke-width="0.5" stroke-linecap="square" stroke-miterlimit="1" points="136.82 -16.01 118.94 -13.92 "></polyline><polyline fill="none" stroke="#444" stroke-width="0.5" stroke-linecap="square" stroke-miterlimit="1" points="131.18 12.26 131.43 9.2 131.61 6.14 131.71 3.07 131.75 0 "></polyline><polyline fill="none" stroke="#444" stroke-width="0.5" stroke-linecap="square" stroke-miterlimit="1" points="125.2 11.7 125.44 8.78 125.61 5.86 125.72 2.93 125.75 0 "></polyline><polyline fill="none" stroke="#444" stroke-width="0.5" stroke-linecap="square" stroke-miterlimit="1" points="133.44 18.78 135.92 22.37 135.36 25.53 134.73 28.68 131.11 31.11 128.19 30.42 125.93 26.8 122.35 29.04 119.43 28.34 117.13 24.93 117.68 22.19 118.16 19.45 121.55 17.11 "></polyline><polyline fill="none" stroke="#444" stroke-width="0.5" stroke-linecap="square" stroke-miterlimit="1" points="126.52 23.86 125.93 26.8 "></polyline><polyline fill="none" stroke="#444" stroke-width="0.5" stroke-linecap="square" stroke-miterlimit="1" points="117.98 33.88 115.1 33.05 "></polyline><polyline fill="none" stroke="#444" stroke-width="0.5" stroke-linecap="square" stroke-miterlimit="1" points="130.49 44.14 129.42 47.17 128.29 50.17 127.08 53.15 125.81 56.1 118.78 49.68 111.52 43.62 "></polyline><polyline fill="none" stroke="#444" stroke-width="0.5" stroke-linecap="square" stroke-miterlimit="1" points="116.77 73.08 118.44 70.34 120.04 67.56 121.59 64.75 123.06 61.9 117.7 59.2 116.29 61.93 114.82 64.62 113.28 67.28 109.14 68.31 104.05 65.12 102.96 61.15 104.36 58.73 105.7 56.29 109.66 55.16 "></polyline><polyline fill="none" stroke="#444" stroke-width="0.5" stroke-linecap="square" stroke-miterlimit="1" points="96.6 85.12 94.59 87.35 92.53 89.53 90.42 91.66 90.31 95.93 92.37 98.11 96.74 98.07 98.99 95.79 101.2 93.45 103.35 91.07 89.84 79.17 "></polyline><polyline fill="none" stroke="#444" stroke-width="0.5" stroke-linecap="square" stroke-miterlimit="1" points="76.06 107.58 78.55 105.77 80.99 103.91 83.39 102 85.75 100.03 "></polyline><polyline fill="none" stroke="#444" stroke-width="0.5" stroke-linecap="square" stroke-miterlimit="1" points="72.6 102.68 74.97 100.96 77.3 99.18 79.59 97.35 81.84 95.47 "></polyline><polyline fill="none" stroke="#444" stroke-width="0.5" stroke-linecap="square" stroke-miterlimit="1" points="57.58 111.79 60.17 110.42 62.73 108.99 65.25 107.5 67.74 105.95 67.33 110.92 66.72 115.92 65.91 120.96 57.3 105.15 "></polyline><polyline fill="none" stroke="#444" stroke-width="0.5" stroke-linecap="square" stroke-miterlimit="1" points="39.59 122.51 36.72 123.4 33.84 124.22 30.93 124.98 28.67 128.59 29.32 131.52 33.1 133.71 36.2 132.91 39.29 132.03 42.36 131.08 36.82 113.95 "></polyline><polyline fill="none" stroke="#444" stroke-width="0.5" stroke-linecap="square" stroke-miterlimit="1" points="20.58 117.97 21.61 123.88 19.62 130.28 17.33 136.66 13.52 131.05 9.99 125.35 9.51 119.37 "></polyline><polyline fill="none" stroke="#444" stroke-width="0.5" stroke-linecap="square" stroke-miterlimit="1" points="21.61 123.88 18.72 124.35 15.82 124.75 12.91 125.09 9.99 125.35 "></polyline><polyline fill="none" stroke="#444" stroke-width="0.5" stroke-linecap="square" stroke-miterlimit="1" points="-7.94 131.51 -4.87 131.66 -1.8 131.74 1.27 131.74 4.34 131.68 "></polyline><polyline fill="none" stroke="#444" stroke-width="0.5" stroke-linecap="square" stroke-miterlimit="1" points="-7.57 125.52 -4.65 125.66 -1.72 125.74 1.21 125.74 4.14 125.68 "></polyline><polyline fill="none" stroke="#444" stroke-width="0.5" stroke-linecap="square" stroke-miterlimit="1" points="-14.37 133.98 -17.88 136.58 -15.54 118.74 "></polyline><polyline fill="none" stroke="#444" stroke-width="0.5" stroke-linecap="square" stroke-miterlimit="1" points="-18.31 118.34 -15.54 118.74 -12.77 119.07 "></polyline><polyline fill="none" stroke="#444" stroke-width="0.5" stroke-linecap="square" stroke-miterlimit="1" points="-34.62 114.64 -31.94 115.41 -29.24 116.13 -26.53 116.77 -23.8 117.36 -24.99 123.24 -28.52 125.55 -31.44 124.85 -34.34 124.09 -38.09 126.12 -38.96 129 -36.74 132.76 -33.64 133.58 -30.52 134.33 -26.78 132.06 "></polyline></g></g><g class="guides gearguides" opacity="0.2"><circle class="pitch" fill="none" stroke="#f00" stroke-miterlimit="10" cx="0" cy="0" r="187.5"></circle><circle class="outer" fill="none" stroke="#ccc" stroke-miterlimit="10" stroke-dasharray="2,2" cx="0" cy="0" r="212.5"></circle><circle class="base" fill="none" stroke="#00f" stroke-miterlimit="10" stroke-dasharray="2,2" cx="0" cy="0" r="183.4"></circle></g></svg>