<svg viewBox="361.1584469089523 361.1584469089523 255.70563127263495 255.70563127263495" style="height: 617px; width: 617px;"><path fill="#bf953f" stroke="#bf953f" stroke-width="1px" d="M 486.6112625452698,609.598622493046 L 488.2112625452698,616.8640781815873 L 489.8112625452698,616.8640781815873 L 491.4112625452698,609.598622493046 L 494.50319181568335,609.497403209096 L 496.57494963017865,616.6426579925334 L 498.17152390736044,616.5380129857651 L 499.29291464722866,609.1834681887914 L 502.3716038018246,608.8802437734547 L 504.90624784579154,615.874700573846 L 506.4925596239896,615.6658586662938 L 507.1305391364189,608.2537180507984 L 510.18280475558845,607.7497869575735 L 513.169481294105,614.5634944370909 L 514.7387377427502,614.2513499218651 L 514.890574101524,606.8133534118961 L 517.9033459152935,606.1108735510888 L 521.3292655408989,612.7146543682456 L 522.8747468629614,612.3005438960816 L 522.5397898814809,604.8685421345967 L 525.5001667384146,603.9705216328181 L 529.3506591373152,610.3360973843243 L 530.8657473445074,609.8217942398392 L 530.0454313599911,602.4276121993629 L 532.9407364719023,601.3378965182678 L 537.1993132445077,607.4380088314946 L 538.6775204965259,606.8257153397104 L 537.3753582279564,599.5010160429154 L 540.1931934538605,598.2242715123466 L 544.8416187206419,604.0327987698624 L 546.2766151070942,603.325136865512 L 544.4981826132174,596.1012857992954 L 547.2264815500753,594.6429796353422 L 552.2448500404009,600.135048831689 L 553.630490686456,599.335048831689 L 551.3834034882406,592.2429796353422 L 554.0104831411484,590.6093565288818 L 559.3773054307089,595.7614497806031 L 560.7076568103929,594.8725374077718 L 558.0015372802006,587.9426194103877 L 560.5161480907681,586.1406747863605 L 566.2084426225899,590.9307300391887 L 567.4778079670559,589.9567117527747 L 564.324244124166,583.2186199271187 L 566.7156181428521,581.2560699890441 L 572.7090096378531,585.6635754910039 L 573.9119533298195,584.6086221868438 L 570.3244492187513,578.0912100765638 L 572.5823462148777,575.9764587645732 L 578.8511700505541,579.9825409004526 L 579.9825409004526,578.8511700505541 L 575.9764587645732,572.5823462148777 L 578.0912100765638,570.3244492187513 L 584.6086221868438,573.9119533298195 L 585.6635754910039,572.7090096378532 L 581.2560699890441,566.7156181428521 L 583.2186199271187,564.324244124166 L 589.9567117527747,567.4778079670559 L 590.9307300391887,566.2084426225899 L 586.1406747863605,560.5161480907681 L 587.9426194103877,558.0015372802006 L 594.8725374077718,560.707656810393 L 595.7614497806031,559.3773054307089 L 590.6093565288818,554.0104831411484 L 592.2429796353422,551.3834034882406 L 599.3350488316889,553.6304906864561 L 600.135048831689,552.2448500404009 L 594.6429796353422,547.2264815500753 L 596.1012857992953,544.4981826132175 L 603.3251368655119,546.2766151070942 L 604.0327987698624,544.8416187206419 L 598.2242715123466,540.1931934538605 L 599.5010160429154,537.3753582279564 L 606.8257153397104,538.6775204965259 L 607.4380088314946,537.1993132445077 L 601.3378965182678,532.9407364719023 L 602.4276121993629,530.0454313599912 L 609.8217942398392,530.8657473445074 L 610.3360973843243,529.3506591373153 L 603.9705216328181,525.5001667384147 L 604.8685421345967,522.5397898814809 L 612.3005438960816,522.8747468629614 L 612.7146543682456,521.3292655408989 L 606.1108735510888,517.9033459152935 L 606.8133534118961,514.890574101524 L 614.2513499218651,514.7387377427502 L 614.5634944370909,513.169481294105 L 607.7497869575735,510.1828047555885 L 608.2537180507984,507.130539136419 L 615.6658586662938,506.4925596239897 L 615.874700573846,504.90624784579154 L 608.8802437734547,502.3716038018247 L 609.1834681887914,499.29291464722866 L 616.5380129857651,498.17152390736044 L 616.6426579925334,496.57494963017865 L 609.497403209096,494.50319181568335 L 609.598622493046,491.41126254526984 L 616.8640781815873,489.8112625452698 L 616.8640781815873,488.2112625452698 L 609.598622493046,486.6112625452698 L 609.497403209096,483.5193332748563 L 616.6426579925334,481.44757546036095 L 616.5380129857651,479.8510011831792 L 609.1834681887914,478.729610443311 L 608.8802437734547,475.650921288715 L 615.874700573846,473.11627724474806 L 615.6658586662938,471.52996546655 L 608.2537180507984,470.8919859541207 L 607.7497869575735,467.83972033495115 L 614.5634944370909,464.8530437964346 L 614.2513499218651,463.2837873477894 L 606.8133534118961,463.13195098901565 L 606.1108735510888,460.1191791752462 L 612.7146543682456,456.69325954964074 L 612.3005438960816,455.1477782275782 L 604.8685421345967,455.48273520905866 L 603.9705216328181,452.522358352125 L 610.3360973843243,448.6718659532243 L 609.8217942398392,447.15677774603216 L 602.4276121993629,447.9770937305485 L 601.3378965182678,445.08178861863735 L 607.4380088314946,440.8232118460319 L 606.8257153397104,439.34500459401386 L 599.5010160429154,440.64716686258316 L 598.2242715123466,437.82933163667906 L 604.0327987698624,433.1809063698977 L 603.325136865512,431.74590998344536 L 596.1012857992954,433.5243424773222 L 594.6429796353422,430.7960435404644 L 600.135048831689,425.77767505013867 L 599.335048831689,424.3920344040836 L 592.2429796353422,426.63912160229904 L 590.6093565288818,424.01204194939123 L 595.7614497806031,418.64521965983073 L 594.8725374077718,417.3148682801467 L 587.9426194103878,420.0209878103391 L 586.1406747863605,417.5063769997716 L 590.9307300391887,411.81408246794973 L 589.9567117527747,410.54471712348374 L 583.2186199271187,413.69828096637366 L 581.2560699890442,411.3069069476875 L 585.6635754910039,405.3135154526865 L 584.6086221868438,404.1105717607201 L 578.0912100765639,407.6980758717884 L 575.9764587645732,405.4401788756619 L 579.9825409004526,399.17135503998554 L 578.8511700505541,398.03998419008707 L 572.5823462148777,402.0460663259664 L 570.3244492187513,399.93131501397573 L 573.9119533298195,393.41390290369577 L 572.7090096378532,392.35894959953566 L 566.7156181428521,396.7664551014954 L 564.3242441241661,394.80390516342095 L 567.4778079670559,388.0658133377649 L 566.2084426225899,387.0917950513509 L 560.5161480907681,391.8818503041791 L 558.0015372802006,390.0799056801519 L 560.707656810393,383.14998768276786 L 559.3773054307089,382.2610753099365 L 554.0104831411484,387.4131685616578 L 551.3834034882406,385.7795454551975 L 553.6304906864561,378.6874762588506 L 552.244850040401,377.8874762588506 L 547.2264815500753,383.37954545519744 L 544.4981826132175,381.92123929124426 L 546.2766151070942,374.6973882250276 L 544.841618720642,373.9897263206772 L 540.1931934538605,379.79825357819306 L 537.3753582279564,378.52150904762425 L 538.6775204965259,371.1968097508292 L 537.1993132445077,370.584516259045 L 532.9407364719023,376.68462857227183 L 530.0454313599912,375.59491289117676 L 530.8657473445074,368.2007308507004 L 529.3506591373153,367.68642770621534 L 525.5001667384147,374.0520034577216 L 522.5397898814809,373.1539829559428 L 522.8747468629614,365.72198119445795 L 521.3292655408989,365.30787072229396 L 517.9033459152935,371.9116515394507 L 514.8905741015241,371.20917167864354 L 514.7387377427502,363.7711751686746 L 513.1694812941051,363.45903065344874 L 510.1828047555885,370.2727381329661 L 507.130539136419,369.76880703974115 L 506.4925596239897,362.35666642424576 L 504.9062478457916,362.1478245166937 L 502.3716038018247,369.1422813170849 L 499.2929146472287,368.8390569017483 L 498.1715239073605,361.4845121047745 L 496.5749496301787,361.3798670980063 L 494.5031918156834,368.52512188144357 L 491.41126254526984,368.42390259749357 L 489.8112625452698,361.1584469089523 L 488.2112625452698,361.1584469089523 L 486.6112625452698,368.42390259749357 L 483.5193332748563,368.52512188144357 L 481.447575460361,361.3798670980063 L 479.8510011831792,361.4845121047745 L 478.729610443311,368.8390569017483 L 475.650921288715,369.1422813170849 L 473.1162772447481,362.1478245166937 L 471.52996546655,362.35666642424576 L 470.8919859541207,369.76880703974115 L 467.83972033495115,370.2727381329661 L 464.8530437964346,363.45903065344874 L 463.2837873477894,363.7711751686746 L 463.13195098901565,371.20917167864354 L 460.11917917524624,371.9116515394507 L 456.6932595496408,365.30787072229396 L 455.14777822757827,365.72198119445795 L 455.48273520905866,373.1539829559428 L 452.522358352125,374.0520034577215 L 448.67186595322437,367.6864277062153 L 447.1567777460322,368.2007308507004 L 447.9770937305485,375.5949128911767 L 445.0817886186374,376.6846285722718 L 440.82321184603194,370.584516259045 L 439.34500459401386,371.1968097508292 L 440.6471668625832,378.52150904762425 L 437.82933163667906,379.79825357819306 L 433.1809063698977,373.9897263206772 L 431.74590998344536,374.6973882250276 L 433.5243424773222,381.92123929124426 L 430.7960435404644,383.37954545519744 L 425.77767505013867,377.8874762588506 L 424.3920344040836,378.68747625885055 L 426.63912160229904,385.7795454551974 L 424.01204194939123,387.41316856165776 L 418.64521965983073,382.2610753099364 L 417.3148682801467,383.1499876827678 L 420.0209878103391,390.07990568015185 L 417.5063769997716,391.88185030417907 L 411.81408246794973,387.0917950513509 L 410.54471712348374,388.06581333776484 L 413.69828096637366,394.80390516342095 L 411.3069069476875,396.76645510149535 L 405.3135154526865,392.3589495995356 L 404.1105717607201,393.4139029036957 L 407.6980758717884,399.9313150139757 L 405.4401788756619,402.0460663259664 L 399.17135503998554,398.039984190087 L 398.0399841900871,399.1713550399855 L 402.0460663259665,405.4401788756618 L 399.93131501397573,407.6980758717883 L 393.41390290369577,404.11057176072006 L 392.35894959953566,405.3135154526864 L 396.7664551014954,411.3069069476874 L 394.80390516342095,413.6982809663736 L 388.0658133377649,410.5447171234837 L 387.0917950513509,411.8140824679497 L 391.8818503041791,417.50637699977153 L 390.0799056801519,420.0209878103389 L 383.14998768276786,417.3148682801466 L 382.26107530993653,418.6452196598306 L 387.4131685616578,424.0120419493911 L 385.7795454551975,426.639121602299 L 378.68747625885067,424.39203440408346 L 377.8874762588506,425.77767505013855 L 383.3795454551975,430.79604354046427 L 381.92123929124426,433.52434247732214 L 374.6973882250276,431.74590998344536 L 373.9897263206772,433.1809063698976 L 379.79825357819306,437.82933163667906 L 378.5215090476243,440.6471668625831 L 371.19680975082923,439.34500459401374 L 370.5845162590451,440.82321184603177 L 376.68462857227183,445.08178861863723 L 375.59491289117676,447.97709373054846 L 368.2007308507004,447.1567777460321 L 367.68642770621534,448.67186595322426 L 374.0520034577216,452.52235835212497 L 373.15398295594287,455.48273520905855 L 365.721981194458,455.1477782275781 L 365.30787072229396,456.69325954964063 L 371.91165153945076,460.1191791752461 L 371.20917167864354,463.1319509890156 L 363.7711751686746,463.2837873477893 L 363.4590306534488,464.85304379643446 L 370.27273813296614,467.8397203349511 L 369.7688070397412,470.89198595412057 L 362.35666642424576,471.52996546654987 L 362.1478245166937,473.11627724474795 L 369.1422813170849,475.65092128871487 L 368.8390569017483,478.7296104433109 L 361.4845121047745,479.8510011831791 L 361.3798670980063,481.4475754603609 L 368.52512188144357,483.5193332748562 L 368.42390259749357,486.61126254526977 L 361.1584469089523,488.2112625452698 L 361.1584469089523,489.81126254526976 L 368.42390259749357,491.4112625452698 L 368.52512188144357,494.50319181568324 L 361.37986709800623,496.57494963017854 L 361.48451210477447,498.1715239073603 L 368.8390569017482,499.29291464722854 L 369.1422813170849,502.3716038018246 L 362.1478245166937,504.9062478457915 L 362.35666642424576,506.4925596239896 L 369.76880703974115,507.1305391364189 L 370.2727381329661,510.1828047555884 L 363.45903065344874,513.1694812941049 L 363.7711751686745,514.7387377427501 L 371.2091716786435,514.8905741015238 L 371.9116515394507,517.9033459152934 L 365.30787072229396,521.3292655408989 L 365.72198119445795,522.8747468629613 L 373.1539829559428,522.5397898814809 L 374.0520034577215,525.5001667384146 L 367.68642770621534,529.3506591373152 L 368.2007308507004,530.8657473445074 L 375.5949128911767,530.0454313599911 L 376.6846285722718,532.9407364719023 L 370.584516259045,537.1993132445077 L 371.1968097508292,538.6775204965257 L 378.52150904762425,537.3753582279563 L 379.798253578193,540.1931934538605 L 373.98972632067716,544.8416187206419 L 374.69738822502757,546.2766151070942 L 381.9212392912442,544.4981826132174 L 383.3795454551974,547.2264815500752 L 377.88747625885054,552.2448500404009 L 378.68747625885055,553.630490686456 L 385.7795454551974,551.3834034882404 L 387.41316856165776,554.0104831411484 L 382.2610753099364,559.3773054307088 L 383.1499876827678,560.7076568103929 L 390.07990568015185,558.0015372802005 L 391.881850304179,560.516148090768 L 387.09179505135086,566.2084426225898 L 388.0658133377648,567.4778079670558 L 394.8039051634209,564.324244124166 L 396.76645510149535,566.7156181428521 L 392.3589495995356,572.7090096378531 L 393.4139029036957,573.9119533298194 L 399.9313150139757,570.3244492187512 L 402.0460663259664,572.5823462148777 L 398.039984190087,578.8511700505541 L 399.1713550399855,579.9825409004525 L 405.44017887566184,575.9764587645732 L 407.6980758717883,578.0912100765638 L 404.11057176072,584.6086221868438 L 405.3135154526864,585.6635754910039 L 411.30690694768737,581.2560699890441 L 413.6982809663736,583.2186199271187 L 410.5447171234837,589.9567117527747 L 411.8140824679497,590.9307300391887 L 417.50637699977153,586.1406747863605 L 420.0209878103389,587.9426194103877 L 417.3148682801466,594.8725374077717 L 418.6452196598306,595.7614497806031 L 424.0120419493911,590.6093565288818 L 426.639121602299,592.2429796353421 L 424.39203440408346,599.3350488316889 L 425.77767505013855,600.135048831689 L 430.79604354046427,594.6429796353422 L 433.524342477322,596.1012857992953 L 431.74590998344524,603.3251368655119 L 433.18090636989757,604.0327987698623 L 437.82933163667894,598.2242715123465 L 440.6471668625831,599.5010160429154 L 439.34500459401374,606.8257153397104 L 440.82321184603177,607.4380088314946 L 445.08178861863723,601.3378965182677 L 447.97709373054846,602.4276121993629 L 447.1567777460321,609.8217942398392 L 448.67186595322426,610.3360973843243 L 452.52235835212497,603.9705216328181 L 455.48273520905855,604.8685421345967 L 455.1477782275781,612.3005438960816 L 456.69325954964063,612.7146543682456 L 460.1191791752461,606.1108735510888 L 463.13195098901554,606.8133534118961 L 463.2837873477893,614.251349921865 L 464.85304379643446,614.5634944370909 L 467.83972033495104,607.7497869575735 L 470.89198595412057,608.2537180507984 L 471.5299654665498,615.6658586662938 L 473.11627724474795,615.8747005738459 L 475.6509212887148,608.8802437734547 L 478.7296104433109,609.1834681887914 L 479.8510011831791,616.5380129857651 L 481.4475754603609,616.6426579925334 L 483.5193332748562,609.497403209096 L 486.6112625452698,609.598622493046"></path><circle cx="489.0112625452698" cy="489.0112625452698" r="116.25281563631745" fill="#513d12"></circle><circle cx="489.0112625452698" cy="489.0112625452698" r="30.675844690895232" fill="#bf953f"></circle><circle cx="489.0112625452698" cy="489.0112625452698" r="6" fill="white"></circle></svg>