<svg
viewBox="116.82756684853992 116.82756684853992 92.81837789902663 92.81837789902663"
   width="200mm"
   height="200mm"
style="height: 210px; width: 210px;"><path fill="#bf953f" stroke="#bf953f" stroke-width="1px" d="M 160.83675579805322,202.24943734848867 L 162.4367557980532,209.64594474756655 L 164.03675579805324,209.64594474756655 L 165.63675579805323,202.24943734848867 L 168.4938677314726,201.96803638461768 L 171.50611119039854,208.91027745280104 L 173.0753676390437,208.59813293757523 L 173.2016370774081,201.03160283894027 L 175.94895180151298,200.19821402855743 L 180.25767989252395,206.41940233484962 L 181.735887144542,205.80710884306546 L 180.38357355756716,198.361333553205 L 182.91551330822207,197.0079835609235 L 188.35514402714304,202.2690423275963 L 189.6854954068271,201.38012995476493 L 186.90656744727428,194.3412464424294 L 189.12583119978973,192.51994374948515 L 195.48732258867264,196.6186934385711 L 196.6186934385711,195.48732258867264 L 192.51994374948515,189.12583119978973 L 194.3412464424294,186.90656744727428 L 201.38012995476493,189.68549540682713 L 202.2690423275963,188.35514402714304 L 197.0079835609235,182.91551330822207 L 198.361333553205,180.38357355756716 L 205.80710884306546,181.735887144542 L 206.41940233484962,180.25767989252395 L 200.19821402855743,175.94895180151298 L 201.03160283894027,173.2016370774081 L 208.59813293757523,173.0753676390437 L 208.91027745280104,171.50611119039854 L 201.96803638461768,168.4938677314726 L 202.24943734848867,165.63675579805323 L 209.64594474756655,164.03675579805324 L 209.64594474756655,162.43675579805324 L 202.24943734848867,160.83675579805322 L 201.96803638461768,157.97964386463386 L 208.91027745280104,154.9674004057079 L 208.59813293757523,153.39814395706276 L 201.03160283894027,153.27187451869835 L 200.19821402855743,150.52455979459347 L 206.41940233484962,146.21583170358252 L 205.80710884306546,144.73762445156444 L 198.361333553205,146.0899380385393 L 197.0079835609235,143.5579982878844 L 202.2690423275963,138.1183675689634 L 201.38012995476495,136.78801618927935 L 194.3412464424294,139.56694414883216 L 192.51994374948515,137.34768039631672 L 196.6186934385711,130.9861890074338 L 195.48732258867264,129.85481815753533 L 189.12583119978973,133.9535678466213 L 186.90656744727428,132.13226515367705 L 189.6854954068271,125.0933816413415 L 188.35514402714304,124.20446926851014 L 182.91551330822207,129.46552803518296 L 180.38357355756716,128.11217804290146 L 181.735887144542,120.66640275304097 L 180.25767989252395,120.05410926125683 L 175.94895180151298,126.27529756754902 L 173.2016370774081,125.44190875716617 L 173.07536763904372,117.87537865853122 L 171.50611119039854,117.56323414330541 L 168.4938677314726,124.50547521148876 L 165.63675579805323,124.22407424761778 L 164.03675579805324,116.82756684853992 L 162.43675579805324,116.82756684853992 L 160.83675579805322,124.22407424761778 L 157.97964386463386,124.50547521148876 L 154.9674004057079,117.56323414330541 L 153.39814395706273,117.87537865853122 L 153.27187451869835,125.44190875716617 L 150.52455979459347,126.27529756754902 L 146.21583170358252,120.05410926125683 L 144.73762445156444,120.66640275304096 L 146.0899380385393,128.11217804290143 L 143.5579982878844,129.46552803518296 L 138.1183675689634,124.20446926851014 L 136.78801618927935,125.0933816413415 L 139.56694414883216,132.13226515367705 L 137.34768039631672,133.9535678466213 L 130.9861890074338,129.85481815753533 L 129.85481815753533,130.9861890074338 L 133.9535678466213,137.34768039631672 L 132.13226515367705,139.56694414883216 L 125.09338164134151,136.78801618927935 L 124.20446926851015,138.1183675689634 L 129.46552803518296,143.55799828788437 L 128.11217804290146,146.08993803853926 L 120.66640275304098,144.73762445156441 L 120.05410926125683,146.21583170358247 L 126.27529756754902,150.52455979459344 L 125.44190875716617,153.27187451869833 L 117.87537865853122,153.39814395706273 L 117.56323414330541,154.9674004057079 L 124.50547521148877,157.97964386463386 L 124.22407424761778,160.83675579805322 L 116.82756684853992,162.4367557980532 L 116.82756684853992,164.0367557980532 L 124.22407424761778,165.63675579805323 L 124.50547521148876,168.4938677314726 L 117.56323414330541,171.50611119039854 L 117.87537865853122,173.0753676390437 L 125.44190875716617,173.2016370774081 L 126.27529756754902,175.948951801513 L 120.05410926125683,180.25767989252395 L 120.66640275304097,181.735887144542 L 128.11217804290146,180.38357355756716 L 129.46552803518296,182.91551330822205 L 124.20446926851014,188.355144027143 L 125.0933816413415,189.6854954068271 L 132.13226515367705,186.90656744727426 L 133.9535678466213,189.12583119978973 L 129.85481815753533,195.4873225886726 L 130.9861890074338,196.61869343857109 L 137.34768039631672,192.51994374948515 L 139.56694414883216,194.3412464424294 L 136.78801618927935,201.38012995476493 L 138.1183675689634,202.2690423275963 L 143.55799828788437,197.0079835609235 L 146.08993803853926,198.361333553205 L 144.73762445156441,205.80710884306546 L 146.21583170358247,206.41940233484962 L 150.52455979459344,200.19821402855743 L 153.27187451869833,201.03160283894027 L 153.39814395706273,208.59813293757523 L 154.9674004057079,208.91027745280104 L 157.97964386463383,201.96803638461768 L 160.83675579805322,202.24943734848867"></path><circle cx="163.23675579805322" cy="163.23675579805322" r="34.809188949513306" fill="#513d12"></circle><circle cx="163.23675579805322" cy="163.23675579805322" r="6.242756684853992" fill="#bf953f"></circle><circle cx="163.23675579805322" cy="163.23675579805322" r="6" fill="white"></circle></svg>